<svg id="Layer_1" data-name="Layer 1" xmlns="http://www.w3.org/2000/svg" viewBox="0 0 1000 600"><defs><style>.cls-1{fill:#d9e3ff;}.cls-2{fill:#85a2d2;}.cls-3{fill:#6689bc;}.cls-4{fill:#37639a;}.cls-5{fill:#42aeba;}.cls-6{fill:#fff;}.cls-7{fill:#fc5252;}.cls-8{fill:#f8f9ff;}.cls-9{fill:#007796;}.cls-10{fill:#f2b78b;}.cls-11{fill:#edd8cf;}.cls-12{fill:#393b4a;}.cls-13{fill:#e8a679;}.cls-14{fill:#2e5990;}.cls-15{fill:#ea8068;}.cls-16{fill:#ebb481;}.cls-17{fill:#8a5c58;}.cls-18{fill:#030303;}.cls-19{fill:#e0935f;}.cls-20{fill:#005d4d;}.cls-21{fill:#219587;}.cls-22{fill:#0c3265;}.cls-23{fill:#001738;}.cls-24{fill:#002853;}.cls-25{fill:#00001c;}.cls-26{fill:#014f29;}.cls-27{fill:#297c53;}.cls-28{fill:#14142e;}.cls-29{fill:#e55c55;}.cls-30{fill:#ffc05c;}.cls-31{fill:#65342e;}.cls-32{fill:#42210b;}.cls-32,.cls-35{opacity:0.09;}.cls-33{fill:#4c3528;}.cls-34{fill:#e09178;}.cls-36{fill:#3d2405;opacity:0.1;}.cls-37{fill:#4f3629;}.cls-38{fill:#593f2e;}.cls-39{fill:#fcd7a2;}.cls-40{fill:#6e3d31;}.cls-41{fill:#76b7b2;}.cls-42{fill:#8ed3d0;}.cls-43{fill:#4da78b;}.cls-44{fill:#a7d4c6;}.cls-45{fill:#003a61;}.cls-46{fill:#00527c;}</style></defs><title>illustration</title><path id="bg" class="cls-1" d="M768.69,530.16c11.62,0,18.41-30.79,44.87-26.68s108.73.24,122.08-66.49-29.47-111.82-113.16-116.2S758.53,69.49,644,69.49c-97.78,0-86.13,106.47-133.41,134s-80.15-47-147.86-53c-54.22-4.76-98,49.49-96.7,94.5,1.71,59.81-57.44,104.44-134.33,73.37S-1.93,382.58,87.88,435.87C180,490.55,244.74,491.76,272,530.16Z"/><g id="plant_1" data-name="plant 1"><path class="cls-2" d="M910.52,268.58,909,267.13A380.15,380.15,0,0,0,805.19,482.34l1.77.24A378.22,378.22,0,0,1,910.52,268.58Z"/><path class="cls-2" d="M934.31,244.64c-4.4-5.32-24.79,7.22-26,24.77C925.27,267.2,938.53,249.78,934.31,244.64Z"/><path class="cls-2" d="M896.34,282.46c11.65,12.57,34.06,10.6,35.29,4.09C933,279.74,911.76,271.09,896.34,282.46Z"/><path class="cls-2" d="M876.27,307.54c14.88,13.57,41,9.2,41.92,1.53C919.29,301,893.47,292.37,876.27,307.54Z"/><path class="cls-2" d="M810.18,457.55c20.62,6.67,44.91-11.45,42.7-19.93C850.66,428.44,820.72,431.94,810.18,457.55Z"/><path class="cls-2" d="M855.48,339.06c18.95,14.11,49.17,6.1,49.49-2.86C905.52,326.57,874.18,318.78,855.48,339.06Z"/><path class="cls-2" d="M820.39,417.77c22.66,10,52.22-6.33,50.71-15.84C869.7,391.57,835.28,390.88,820.39,417.77Z"/><path class="cls-2" d="M836.32,376c22.74,13.32,55.62.66,55.08-9.3C891.08,355.87,855,350.38,836.32,376Z"/><path class="cls-2" d="M890.37,246.61c-7.69,2.2-8.73,26.52,6,35.85C905.28,266.17,897.86,244.69,890.37,246.61Z"/><path class="cls-2" d="M866.29,265.42c-9,3.44-8.22,32.68,10,42.12C885.34,287.33,875.06,262.38,866.29,265.42Z"/><path class="cls-2" d="M782.18,417c-7.71,8.49,5.79,40.11,28,40.6C810.44,430.92,789.81,409.13,782.18,417Z"/><path class="cls-2" d="M839.65,289.88c-10.47,5.27-6.65,40.37,15.83,49.18C864,314,849.82,285.23,839.65,289.88Z"/><path class="cls-2" d="M793.39,368.85c-9.85,8.44,1.8,45.5,27,48.92C823.68,388.52,803,361.21,793.39,368.85Z"/><path class="cls-2" d="M813.47,321.92c-11.35,7.43-3.31,47.22,22.85,54.1C843.05,346.44,824.51,315.33,813.47,321.92Z"/><path class="cls-3" d="M934.11,345c-12.45,5.44-75.21,34.43-113.31,82-30.95,38.65-23.72,80.49-22.27,87.28,7-.07,49.35-2.15,80.31-40.81C917,425.86,931.52,358.3,934.11,345Z"/><path class="cls-4" d="M893.49,452.48l-47.92,5.3,60-74.88L925,380.75c.31-1,.61-2,.9-2.93l-17.84,2L933.5,348c.25-1.19.45-2.2.61-3l-2.81,1.25L874.6,417l-4-35.83c-.88.62-1.75,1.26-2.63,1.9l4.1,37-60,74.88-5.1-46c-.82,1.74-1.56,3.48-2.26,5.2l4.86,43.95-11.47,14.33,2.2,1.76,42.7-53.32,48.51-5.37C892.24,454.51,892.86,453.5,893.49,452.48Z"/></g><g id="plant_2" data-name="plant 2"><path class="cls-2" d="M108.71,341.85l.82-1.16a258.75,258.75,0,0,1,96.92,130.56l-1.16.38A257.43,257.43,0,0,0,108.71,341.85Z"/><path class="cls-2" d="M89.74,328.9c2.27-4.12,17.5,1.65,20.58,13.22C98.67,342.82,87.58,332.87,89.74,328.9Z"/><path class="cls-2" d="M120,349.32c-6.18,9.88-21.41,11.44-23.07,7.24C95.09,352.19,108.2,343.69,120,349.32Z"/><path class="cls-2" d="M136.58,363.51c-8.21,11-26.24,11.4-27.82,6.39C107,364.62,123.15,355.57,136.58,363.51Z"/><path class="cls-2" d="M199.94,455.32c-12.93,7.09-31.48-1.91-31.08-7.87C169.16,441,189.62,439.55,199.94,455.32Z"/><path class="cls-2" d="M154.51,381.92c-10.86,11.85-32.09,10.37-33.45,4.42C119.46,380,139.41,370.76,154.51,381.92Z"/><path class="cls-2" d="M188,430c-13.86,9.6-35.71,2.46-35.92-4.09C151.72,418.83,174.64,414,188,430Z"/><path class="cls-2" d="M172,404.17C158.55,416,135,411.72,134,405,132.86,397.71,156.26,389.42,172,404.17Z"/><path class="cls-2" d="M119.37,324.59c5.41.49,9.22,16.61.59,24.73C111.9,339.57,114.11,324.27,119.37,324.59Z"/><path class="cls-2" d="M137.86,334.08c6.48,1.15,9.68,20.79-1.28,29.43C127.93,351.16,131.62,333.18,137.86,334.08Z"/><path class="cls-2" d="M213.46,424.6c6.24,4.69,1.26,27.54-13.52,30.72C196.36,437.55,207.36,420.35,213.46,424.6Z"/><path class="cls-2" d="M158.79,347c7.68,2.19,9.61,26.13-4.28,34.9C145.6,366.23,151.4,345.22,158.79,347Z"/><path class="cls-2" d="M199.82,393.88c7.66,4.38,4.61,30.65-11.79,36.15C182.09,410.91,192.39,390,199.82,393.88Z"/><path class="cls-2" d="M180.39,365.09c8.54,3.51,8.25,31.14-8.35,39.08C163.76,385.26,172.17,362.1,180.39,365.09Z"/><path class="cls-3" d="M89.7,418.93c.2-.62.4-1.24.61-1.86A269.06,269.06,0,0,1,222,510.84l-1.35,1A267.29,267.29,0,0,0,89.7,418.93Z"/><path class="cls-3" d="M91,417.59c.18.3.36.6.53.9l-1,.42c-9.68,4.06-27.34-7-28.37-7.35l-2.55-1.48c1-.13,2-.24,3-.36C63.37,409.33,85.44,408,91,417.59Z"/><path class="cls-3" d="M208,495c.25.27.5.55.74.83l-.64.57c-16.2,13-45.22,6.37-46.44,6.93l-2.13-.32,1.59-1.27C162,500.69,192.26,477.53,208,495Z"/><path class="cls-3" d="M183.57,470.88l.83.73c-.19.23-.39.45-.58.67-13,13.8-39.31,11.17-40.36,11.7l-2.18-.07,1.47-1.49C143.5,481.35,168.05,457.49,183.57,470.88Z"/><path class="cls-3" d="M157.62,451l.91.63-.51.76c-9.87,13.66-33,14.08-33.91,14.56l-2.23.17,1.34-1.68C123.82,464.38,143,441.15,157.62,451Z"/><path class="cls-3" d="M130.75,435l1,.51-.44.84c-7,12.76-26.66,15.27-27.4,15.69l-2.24.39,1.19-1.84C103.29,449.69,117.6,428.25,130.75,435Z"/><path class="cls-3" d="M106.27,423.86l1,.42-.36.89c-4.73,11.12-20.6,14.61-21.2,15l-2.25.58,1.06-2C84.87,438,95.09,419.46,106.27,423.86Z"/><path class="cls-3" d="M211.63,444.89l1-1.81c.34.83.68,1.67,1,2.5,1.23,1.49,12.58,36-4.25,49.71l-.65.57c-.24-.28-.49-.56-.74-.83C193.2,479,210.9,446.69,211.63,444.89Z"/><path class="cls-3" d="M182.21,426.19l.81-1.95,1.25,2.36c1.13,1.19,14.13,30,.73,44.33l-.59.67-.83-.73C168.91,458.51,181.72,427.82,182.21,426.19Z"/><path class="cls-3" d="M152.58,412.3l.63-2.08,1.46,2.22c1,.93,14.54,24.26,4.38,38.36l-.51.76-.92-.62C143.73,441.84,152.28,413.72,152.58,412.3Z"/><path class="cls-3" d="M123.37,402.75c.14-.72.29-1.44.44-2.17l1.63,2.07c.86.7,14,18.94,6.73,32l-.43.84-1-.51C118.17,428.68,123.21,404,123.37,402.75Z"/><path class="cls-3" d="M98.09,398.13c.1-.75.19-1.49.28-2.23l1.78,1.92c.69.52,12.35,14.21,7.52,25.54l-.36.9-1-.41C95.49,419.7,98,399.11,98.09,398.13Z"/><path class="cls-3" d="M183.1,406c-5-8.48-5.07-17.51-.09-27.52h0c5.36-10.73,2.3-19.63-9.78-25.9-13.39-7-18.83-19.67-15.42-36.33,2.1-10.11-5.84-15.32-15.11-20-1.78-.91-3.63-1.82-5.43-2.76-9.92-5.08-13.29-12.25-14.57-16.41-1.63-5.4-1.19-10.95,1.51-14.43s8.09-5.23,14.11-4.22c4.47.71,13.4,3.92,19.32,15.15,1.06,2,2,4.1,2.92,6.11,4.72,10.57,7.75,19.4,18.36,21.09,17.68,2.71,29.58,19.09,27.14,36-2.13,15.11,1.07,23.18,12.11,30.27a30.63,30.63,0,0,1,13.94,30c-1.66,14.16-12.12,25.66-21.78,26.26S189,415.6,183.1,406Z"/><path class="cls-4" d="M170.31,331.23l-.3,1.49C168.92,332.39,169.21,330.9,170.31,331.23Z"/><path class="cls-4" d="M191.85,394.27l-.71,1.3C190.24,394.92,190.93,393.62,191.85,394.27Z"/><path class="cls-4" d="M190.36,320.59l-1.5-.55C189.05,318.82,190.55,319.38,190.36,320.59Z"/><path class="cls-4" d="M220.42,388.94l-1.22-1C219.72,386.81,220.94,387.84,220.42,388.94Z"/><path class="cls-4" d="M207.82,407.11a225,225,0,0,0-22.09-68.83q-7.81-3.15-15.72-5.56l.3-1.49q7.2,2.17,14.33,5a224.72,224.72,0,0,0-40.06-54.54q-5-.31-9.88-.37c-1.19,0-1.34-1.57-.14-1.56q4.14,0,8.33.25-5.88-5.76-12.21-11.12a.76.76,0,1,1,1-1.15q6.36,5.4,12.27,11.2-.31-4.2-.8-8.47c-.14-1.23,1.48-1.15,1.62.08q.56,5.08.89,10.08a226,226,0,0,1,40.28,54.93q1.71-7.57,3-15.48l1.5.55q-1.4,8.71-3.37,17a226.09,226.09,0,0,1,22.18,69.28c3.55-6,6.91-12.37,10-19l1.22,1q-5.07,10.65-10.91,20.33a226.2,226.2,0,0,1,2,38.94l-.67,0-.67,0a225.36,225.36,0,0,0-2-38.69,179,179,0,0,0-17-13.9l.71-1.3A180.22,180.22,0,0,1,207.82,407.11Z"/></g><g id="phone"><path class="cls-5" d="M812.63,263.18V499.5A30.66,30.66,0,0,1,782,530.16H218a30.67,30.67,0,0,1-30.66-30.66V263.18A30.66,30.66,0,0,1,218,232.52H782a30.65,30.65,0,0,1,30.66,30.66Z"/><rect class="cls-6" x="362.82" y="139.64" width="272.13" height="483.38" transform="translate(117.54 880.22) rotate(-90)"/><path class="cls-7" d="M575.42,339.25c-13.32-35-56.27-42.95-76.54-6.27h0c-20.26-36.68-63.21-28.69-76.54,6.27-18.65,48.88,64.5,114.44,76.54,114.44S594.07,388.13,575.42,339.25Z"/><path class="cls-8" d="M533.6,378.18l-16.48,26.46L480.65,346.1l-20,32.08H424.92c.88,2.11,1.86,4.22,2.92,6.31h36.32L480.65,358l36.47,58.54,20-32.08h32.82c1.06-2.09,2-4.2,2.92-6.31Z"/><path class="cls-9" d="M226.16,351.2v60.27a3.87,3.87,0,0,1-3.88,3.88h0a3.94,3.94,0,0,1-1.71-.39,3.9,3.9,0,0,1-2.17-3.49V351.2a3.89,3.89,0,0,1,1.57-3.12,3.83,3.83,0,0,1,2.31-.76h0a3.88,3.88,0,0,1,3.88,3.88Z"/><path class="cls-9" d="M786.75,352.32v58.32a10.08,10.08,0,0,1-10.07,10.08h0a10.07,10.07,0,0,1-10.07-10.08V352.32a10.07,10.07,0,0,1,10.07-10.07h0a10.09,10.09,0,0,1,10.07,10.07Z"/></g><g id="elders"><path class="cls-10" d="M356.7,385.64a31.32,31.32,0,0,0-1.17-8.77,1.39,1.39,0,0,0-2.72.37c0,.18,0,.36-.05.54a1.43,1.43,0,0,0-1.63,0c0-.32,0-.64,0-1a1.38,1.38,0,0,0-2.75,0l0,.75a1.11,1.11,0,0,0,0,.37c.05,4.65.09,9.29.18,13.93a1.29,1.29,0,0,0,.36.91,1.45,1.45,0,0,0,.28,1.21c2,2.48,6.21,1.27,7.11-1.56C356.94,390.41,356.71,387.73,356.7,385.64Z"/><path class="cls-11" d="M329.25,306c-.09.08-2.3-.05-2.89,0a19.17,19.17,0,0,0-4.64.78,11.26,11.26,0,0,0-6,4c-1.4,2-1.77,5-2.62,7.3a16.32,16.32,0,0,0-.7,8.48c.63,3.57,5.13,11.14,9.44,6.44,1.61-1.76,1-5.15,1.15-7.33.19-3.65.68-7.16,2.51-10.38a2.73,2.73,0,0,0-1-3.68c3-.3,6.49.47,8.63-1.72C335.59,307.36,331.77,303.54,329.25,306Z"/><path class="cls-10" d="M296.49,388.72a31.6,31.6,0,0,1-.45-8.84,1.39,1.39,0,0,1,2.73-.14l.15.53a1.42,1.42,0,0,1,1.61-.3c-.06-.32-.11-.64-.17-1a1.38,1.38,0,0,1,2.71-.5c.05.24.11.49.16.73a1.25,1.25,0,0,1,0,.38c.8,4.57,1.62,9.15,2.38,13.73a1.28,1.28,0,0,1-.19,1,1.44,1.44,0,0,1-.05,1.23c-1.47,2.8-5.87,2.39-7.27-.23C297.13,393.45,296.87,390.77,296.49,388.72Z"/><path class="cls-11" d="M342.41,327.3c-.4-1.75-2.59-1.49-3.22-.16a1.49,1.49,0,0,0-1.79-.05,10.76,10.76,0,0,0-2.09,2.25,1.9,1.9,0,0,0-1.76,2.15c0,.27.09.54.13.81a7.11,7.11,0,0,0-.54,3c-.1-.1-.2-.21-.33-.32-2-1.72-4.89-1.67-7.49-1.08a1.62,1.62,0,0,0-2.54-.89c-.85,0-1.69.11-2.53.06a1.69,1.69,0,0,0-.72-1.08c-1-.73-2.79-1.66-3.27-2.86-.41-1-.1-1.75-.93-2.63a1.74,1.74,0,0,0-1.23-.51c.37-1.76.45-3.86,1.64-5,1.58-1.54-.81-3.9-2.41-2.41-2.4,2.22-2.26,6-3.47,8.91-1,2.37-1.11,5.56,1,7.48,1.25,1.15,3.08,1.11,4.46,2,1.07.72,1.74,1.72,3,2.17,2.85,1,6.22-.43,8.53-2l.11-.09a6,6,0,0,1,1.83,0c1.87.3,2.68,2,4.11,3,2.32,1.55,4.42.27,6.83-.39C344.92,338.12,343.37,331.47,342.41,327.3Z"/><path class="cls-11" d="M346.45,321.67c-1.11-2.74-.6-5.84-2.06-8.42A27.51,27.51,0,0,0,342,310.2a29.17,29.17,0,0,1-1.83-3.33,5.59,5.59,0,0,0-4.62-2.68c-5.57-.63-10,3-13.16,7.19-1.58,2.12,2,4.13,3.53,2.06a16.13,16.13,0,0,1,3.6-3.59,9.63,9.63,0,0,0-1.86,5.59,5.64,5.64,0,0,0,3.55,4.75,11.87,11.87,0,0,0,1.62,3,5.14,5.14,0,0,0,2.33,1.64,2.18,2.18,0,0,0,.12,3.46c3.28,2.49,8.55,4.51,11.1-.1A7.53,7.53,0,0,0,346.45,321.67Z"/><path class="cls-12" d="M320.27,527.46a2.6,2.6,0,0,1,3.23-1.09c1,.26,1.74.67,1.75,1.79a6.48,6.48,0,0,1-.7,2.75,11.12,11.12,0,0,0-.57,2.43,1,1,0,0,1-.6.76.41.41,0,0,1-.62-.34c0-.14,0-.27,0-.4a16.8,16.8,0,0,1-6.37,6.48c-.84.46-1.82.3-1.77-.45C314.83,535.73,318,530.36,320.27,527.46Z"/><rect class="cls-13" x="322.72" y="331.21" width="11.2" height="19.19"/><path class="cls-10" d="M328.4,309.59c-10.67-.2-12.37,7.43-10.48,20.08,1.13,7.58,5.76,12,12.52,10.68,4-.78,6.63-5.1,7.76-11.88,1.08-6.47.84-15.4-1.74-17.22C334.57,309.92,331.05,309.64,328.4,309.59Z"/><path class="cls-10" d="M324.85,468.32c-1.42-2.09-11.06,5.24-11,6.3.51,9.55,5.41,53.43,7.49,54.77,1.75,1.14,2.53-.6,2.8-2.18C324.72,523.91,325.56,469.38,324.85,468.32Z"/><path class="cls-12" d="M331.42,527.46a2.61,2.61,0,0,0-3.24-1.09c-1,.26-1.74.67-1.75,1.79a6.48,6.48,0,0,0,.7,2.75,11.12,11.12,0,0,1,.57,2.43,1,1,0,0,0,.6.76.41.41,0,0,0,.62-.34l0-.4a16.8,16.8,0,0,0,6.37,6.48c.84.46,1.82.3,1.77-.45C336.85,535.73,333.67,530.36,331.42,527.46Z"/><path class="cls-10" d="M326.14,468.57c1.4-2.1,11.12,5.13,11.07,6.19-.41,9.55-4.85,53.47-6.91,54.84-1.74,1.15-2.54-.57-2.83-2.15C326.86,524.15,325.44,469.64,326.14,468.57Z"/><path class="cls-12" d="M342,394.79a2,2,0,0,0-2.27-1.21c-.28-.12-27.07-.91-28.95-.29a2,2,0,0,0-2.06,1.17,59.15,59.15,0,0,0-6.62,28.82c.25,11.39,1.42,22.85,2.39,34.19.47,5.57,1,11.13,1.61,16.68.27,2.43.54,4.86.86,7.29.22,1.65.36,3.35,1.78,4.46,1.58,1.23,3.87.9,5.72.92l7.95.05,17.23.12a2.68,2.68,0,0,0,2.63-2.37c.66-2.94,2.49-16.62,2.92-20.58.9-8.36,1.89-16.72,2.66-25.09C349.27,423.77,349.17,408.64,342,394.79Z"/><path class="cls-14" d="M349.17,349.71c-2.68-3.09-6-4-9.85-4.67a53.85,53.85,0,0,0-17.17-.23,38.44,38.44,0,0,0-15.3,6.49c-6.18,5-4,12.13-3.5,19,.58,7.37,1,15.6,1.38,23.74.23,5.45,3.94,6,12.4,5.67,8.76-.37,18.29,3.14,26.07-2.56a13.1,13.1,0,0,0,5.17-9.69c.23-2.21.05-4.43.21-6.65s1.15-4.31,2-6.46C353.67,366.82,354.89,356.3,349.17,349.71Z"/><path class="cls-11" d="M342.11,319.29c-.35-3.8-.95-9.77-4.44-12.07a1,1,0,0,0-1.51.62,19.71,19.71,0,0,0-.23,2,10.85,10.85,0,0,0-1.17-1.06c-.62-.48-1.86-.27-1.77.73v0l-.74-.64a1,1,0,0,0-1.37,0,1.27,1.27,0,0,0-.62.29,7.8,7.8,0,0,0-4.62-1.41.87.87,0,0,0-.82.39l-.13,0a8.54,8.54,0,0,0-4.54,3.55,1.05,1.05,0,0,0-1.1.47l-.07.11c-.2-1.06-1.95-1-2.05.27-.06.71-.11,1.42-.17,2.14s-.19,1.53-.32,2.3a16.42,16.42,0,0,0-1.3,5.46.86.86,0,0,0,.4.83,1.67,1.67,0,0,0-.08.2,3.1,3.1,0,0,0-.25.71,1,1,0,0,0,2,.55c.29-1.23,2.22-1.9,3-2.88a4.71,4.71,0,0,0,.82-2.18c.64-4.05-.27-6.55,4.43-8.3,1.91-.72,4.11,1.12,5.65,4.2,1.05,2.08,2.86,3.6,4,5.59,1.37,2.33.76,5.13,2.12,7.37.55.91,1.61,2,2.8,1.8C343.25,329.79,342.3,321.35,342.11,319.29Z"/><path class="cls-10" d="M320.23,323.7c.68-.53,0-1.71-.69-1.18-1.2.89-3.54.54-3.87,2.33a4.12,4.12,0,0,0,.72,2.5c.39.79.77,1.58,1.2,2.35.47,1,1,2,1.39,3,.36.81,1.54.11,1.19-.7-.15-.35-.3-.7-.46-1.05a.66.66,0,0,0,0-.21c-.05-1.1-.62-5.44-2.25-5.9.26-.17.71-.12,1.24-.3A4.94,4.94,0,0,0,320.23,323.7Z"/><path class="cls-10" d="M331.29,383c-1.65-1.33-7.28-1.31-8.88,0-.75.62-1.37,1.36-2.08,2-1.44.65-2.92,1.21-4.42,1.73.19,1.22.29,2.45.47,3.67.06.44.11.88.15,1.31a3.43,3.43,0,0,0,1.35-.37c1.78-1.14,3.32-1.46,5.1-2.51,1.79.15,4.4-.06,5.49-1.35S332.67,384.14,331.29,383Z"/><path class="cls-10" d="M322,382.91c1.7-1.26,7.33-1,8.86.38.73.65,1.32,1.41,2,2.09,1.41.71,2.93.6,4.42,1.18-.25,1.21-.48,3.17-.71,4.38-.08.44-.1.55-.15,1a26.89,26.89,0,0,1-5.69-2.29c-1.81.08-5.07-.8-6.11-2.13S320.58,384,322,382.91Z"/><path class="cls-14" d="M311.58,354.65c3.27-1.23,1.86-6.52-1.46-5.28-4.62,1.72-7.81,5.36-10.18,9.6-2.6,4.64-2.75,10.43-5.78,14.74-2.69,3.83-6.42,8.63-4.29,13.67,1.66,3.92,6.42,4.38,9.79,2.44,4-2.32,7.44-7.08,9.59-11.14,1.57-3,4.17-9.38,1-12.24a4.15,4.15,0,0,0-1.61-1c.2-.91.39-1.82.58-2.73a2.81,2.81,0,0,0-3.41-3.36A11.45,11.45,0,0,1,311.58,354.65Z"/><path class="cls-14" d="M364.94,379c-.49-3.79-3.24-6.32-5.32-9.3-2.51-3.58-2.23-8.2-4-12.13a23.81,23.81,0,0,0-8.35-9.66,2.23,2.23,0,0,0-2.66-.11c-2.57.56-3.36,4.69-.3,5.27l.83.36a2.87,2.87,0,0,0,.9.44,17.63,17.63,0,0,1,4.48,5.85c-1.68-.58-3.91.41-3.75,2.52.07.95.18,1.88.32,2.8-2,.49-.41,11.08-.57,13.19-.66,8.64,4.66,7.57,13.06,7.13C363.22,385.16,365.41,382.66,364.94,379Z"/><path class="cls-10" d="M355.19,390.59a6.85,6.85,0,0,0-.91-.77c-2.93-1.63-.17-.95-3.46-1.6-4.36-.87-13.75-2-18.14-2.71-.83-.14-1.2,1.07-.45,1.29-.46-.05-.7.42-.63.82a1.51,1.51,0,0,0-.76,2.08c4,1.59,8,3.18,12.1,4.44,3.6,1.1,5.87,2.2,9.69,1.71C356.15,395.39,357.15,392.28,355.19,390.59Z"/><path class="cls-10" d="M298.58,392.42a7,7,0,0,1,.83-.86c2.74-1.92.07-.95,3.27-1.95,4.25-1.31,13.48-3.4,17.77-4.57.81-.23,1.3.93.57,1.23.46-.09.74.35.72.75a1.52,1.52,0,0,1,1,2c-3.8,2-7.62,4-11.57,5.66-3.47,1.47-5.62,2.81-9.47,2.71C298.12,397.3,296.81,394.31,298.58,392.42Z"/><path class="cls-11" d="M274.68,318.79c-.07-.8-.6-1.43-.73-2.19-.31-1.78.45-2.58.68-4.17a5.54,5.54,0,0,0-1.16-4.23c-2.11-3.12-2-6.75-5.21-9.26-.37-.29-3.77-2.5-5.35-2.81a17.38,17.38,0,0,0-9.75.58,11.84,11.84,0,0,0-5.71,4.49,8,8,0,0,0-1.5,3.55c-.17,1.1.36,2.9-.14,3.88-.95,1.83-3.38,1.09-3.43,3.68,0,.76.44,1.26.51,1.94a9.36,9.36,0,0,1-.46,2.86,4.67,4.67,0,0,0-.05,2.67c.44,1.21,1.43,2.32,2,3.49a7.61,7.61,0,0,0,1.38,2.47,3.37,3.37,0,0,0,4,.73c1.81-1.05,1.64-3.65,1.65-5.47a34.49,34.49,0,0,0-1.21-9c.08-.43.18-.86.29-1.28a1.2,1.2,0,0,0,.9-.67,9.64,9.64,0,0,0,1.11-4.8,1.52,1.52,0,0,0,0-.21,1.27,1.27,0,0,0,.9-.66,7.33,7.33,0,0,1,7.21-3.36l.27.2a1.4,1.4,0,0,0,1.5.2c2.17.78,3.56,2.81,5.06,4.51a8.7,8.7,0,0,1,1.5,2.54,1.21,1.21,0,0,0,.3.75c.43,1.23.74,2.53,1,3.71a9.39,9.39,0,0,1-1.55,7.84c-.65.95.24,2,1.19,2.07C272.41,323.09,274.94,321.64,274.68,318.79Z"/><rect class="cls-15" x="253.14" y="319.45" width="11.2" height="19.19" transform="translate(517.47 658.1) rotate(180)"/><path class="cls-10" d="M258.9,298c10.08-.41,13.56,8.94,11.54,19.21-1.48,7.53-2.73,10-12.83,10.53s-11.3-24.09-6.31-27.91C253.08,298.41,256.39,298.05,258.9,298Z"/><path class="cls-16" d="M295.33,387.53c-.16-4.41-1.77-8.65-3.09-12.82-1.49-4.73-5.29-23.34-7-27.5a10,10,0,0,0-4.32-5.25,12.8,12.8,0,0,0-1.57-1.21,48.82,48.82,0,0,0-21.2-6.91,2.87,2.87,0,0,0-.6,0c-.3,0-.59.13-.95.15-6.78.39-21.13,5.9-23.68,7.7-5.17,3.65-7.72,12.23-9.37,19.2a68.46,68.46,0,0,1-5.38,14.39c-2.14,4.38-2.07,9.12-2.1,13.88,0,4.06,1.1,7.92,5.56,9,4.61,1.08,8.58-2.37,11.41-5.6.64,4.67,1.36,9.33,2.22,14,.45,2.43,3.4,2,4.34.25a7.16,7.16,0,0,0,2.31,2.6,2.43,2.43,0,0,0,3.51-1.52,37.37,37.37,0,0,0,.85-4.66c.09.6.19,1.21.3,1.81.48,2.54,4,1.95,4.66-.1.2-.63.39-1.27.55-1.91,0,1.29-.11,2.58-.16,3.86-.11,2.3,3.63,3.37,4.53,1.12.27-.67.52-1.36.75-2a2.39,2.39,0,0,0,4.66.9v.08c-.13,2.74,4.19,3.19,4.77.54l.42-2v.11c-.2,1.82,1.77,2.63,3.25,2.17a2.67,2.67,0,0,0,2.74.7c1.16,1.36,3.9,1.14,4.23-.91q1.08-6.75,2.15-13.5a14.93,14.93,0,0,0,2,2.11c2.76,2.35,6.83,3.78,10.16,1.67S295.47,391.08,295.33,387.53Z"/><path class="cls-10" d="M247,497.5c-1.28-2.17-7.13,0-7.32.12-.51-.68-1.52-2.47-1.53-1.41-.05,9.56,1.18,37.13,3.17,38.59,1.68,1.24,1.89.18,2.69-1.36C245.56,530.46,247.65,498.6,247,497.5Z"/><path class="cls-10" d="M274.08,496.82c-1.29-2.18-7.13,0-7.33.12-.51-.69-1.52-2.48-1.52-1.42-.06,9.57,1.17,37.13,3.16,38.6,1.68,1.24,1.9.17,2.7-1.37C272.63,529.77,274.73,497.91,274.08,496.82Z"/><path class="cls-12" d="M278.09,401.15c-.27-1.52-.64-2.94-2.32-3.45-3.7-1.13-11.71-1.7-15.52-1.55-4.28.16-8.57.44-12.84.83-3.23.3-10.81-.27-13.45,1.92-.36.29-.51,2.05-.74,3.28C229.14,425,232,447.7,233,470.66q.77,17.13,1.54,34.27l.36,8.07c.12,2.59-.24,6,.52,8.46,1.39,4.61,7.78,3.5,11.4,3.26,1.21-.08,2.52-.76,2.65-2,1.83-16.7,4.9-56.47,6.77-84.73,1.82,28.86,5,70.5,6.92,85.15a2.67,2.67,0,0,0,2.66,2c3.61.24,10,1.36,11.4-3.26.75-2.51.23-7.32.35-9.91l.36-8.07q.76-17.13,1.54-34.27C280.48,446.67,282.17,423.92,278.09,401.15Z"/><path class="cls-10" d="M255,404.07a4.45,4.45,0,0,0,5.52.9c.85-.47,1.6-1.08,2.4-1.59,1.76-.43,3.53-.75,5.34-1s2.22-1.31,1.79-3.08c-.51-2.05-1.64-1.93-3.56-1.7a26.28,26.28,0,0,0-6,1.45c-1.74-.48-3.81-.64-5.11.43A3.25,3.25,0,0,0,255,404.07Z"/><path class="cls-12" d="M245.81,530.6c-.88-1-3.76-.72-5-.49-1.76.32-2.06,1.52-3.57,2.45s-5.87,2.88-7.11,4.32a1.06,1.06,0,0,0-.16,1.25c.77,1.27,7.08.86,8.25.61s.92-.54,1.82-.89,1.43.41,2.25.54c3.85.58,3.92-1.82,3.92-5.11A5.51,5.51,0,0,0,245.81,530.6Z"/><path class="cls-12" d="M275.57,538.14l0,0,0-.09a14.71,14.71,0,0,1-2.13-3.31,8.38,8.38,0,0,1-.72-2.83c-.07-1.08-.65-1.9-.8-1.78s-4.67-.23-4.89.08a3.34,3.34,0,0,0-.31,1.87c0,1.1-.18,2.25-.17,3.35a3.1,3.1,0,0,0,.3,1.88c.39.49,1,.45,1.49.66.36.46.48,1.11.81,1.63a4.45,4.45,0,0,0,1.19,1.18,11.18,11.18,0,0,0,4.58,1.95C277.57,543.09,276.37,539.45,275.57,538.14Z"/><path class="cls-16" d="M293.52,391.28c-.47-3.4-2.17-6.39-5.88-6.46-4.25-.08-9.27.72-12.79,3.23-1.74,1.24-3,3.15-4.91,4.21s-4.55.42-6.32,2a3.81,3.81,0,0,0-1,1.59,1.31,1.31,0,0,0-1.34,1.32c-.05,2.63.63,9.44,4.23,9.92,2.74.37,3.63-2.36,6.86-.74,1.77.88,2.76,1.63,4.89,1s3.23-2.11,4.75-3.43c2.15-1.85,4.67-2.12,7.11-3.32C292.68,398.82,294.06,395.14,293.52,391.28Zm-2.86,3.58c-1.05,3.69-5.41,2-5.47,2,.84-1.81-1.14-.58-.79-2.28s-2.3-2.47-2.66-.73a19.13,19.13,0,0,1-1.64,4.94c0,.05-.07.14-.13.25a1.57,1.57,0,0,0-.35-.11c.08-2.7.35-5.38.65-8.08.18-1.54-2.38-1.87-2.71-.36-.19.92-.39,1.85-.59,2.78,0-.34,0-.69,0-1a1.24,1.24,0,0,0-1.4-1.32l.19-.16c2.82-2.3,6.39-2.81,9.91-3.09,2.15-.17,3.7.1,4.7,2.27A7.86,7.86,0,0,1,290.66,394.86Z"/><path class="cls-16" d="M266.28,332.93c-.18-.81-.41-2.05-1.34-2.26s-2.23.66-3,1.15l-3.61,2.23a7.57,7.57,0,0,0-4.46-3,2.13,2.13,0,0,0-2.39.71,6.64,6.64,0,0,0-1,3.87.63.63,0,0,0,.54.63.61.61,0,0,0,.94-.39c.05-.3.13-.6.19-.9a3.2,3.2,0,0,0,3.29,2c.87-.13.49-1.44-.37-1.32a1.15,1.15,0,0,1-.52-.07.59.59,0,0,0,0-.65c-.15-.25.52.39.38.13.6.45.31.12.78.72a.54.54,0,0,0,.49.22c.34.45.68.9,1,1.34.56.68,1.51-.29,1-1l-.33-.45.09,0a2.23,2.23,0,0,1,.19.24.74.74,0,0,0,1.21,0,6.46,6.46,0,0,0,1.74-.09.66.66,0,0,0,.91.26l.89-.41a.68.68,0,0,0,1.1-.52.61.61,0,0,0,.24-.24c0,.15,0,.29,0,.44a.63.63,0,0,0,.5.64l.12.77a.69.69,0,0,0,1.33,0A8.91,8.91,0,0,0,266.28,332.93Z"/><path class="cls-6" d="M232.68,393l.38-.42c.09.72.2,1.43.3,2.15q.19-23.49.88-47,.1-3.44.23-6.87c-.26.12-.49.24-.69.35Q232.91,367.11,232.68,393Zm10.75-55.72q.13,30-1.72,59.88a1.63,1.63,0,0,1,.69,0q.53-8.34.89-16.67.78-17.77.85-35.58c0-2.63,0-5.27,0-7.9ZM223.94,376l-.14,20.69c0,.55,0,1.11,0,1.67l.69-.07,0-3q.07-10.17.14-20.35l.13-18.65c-.25.87-.48,1.74-.7,2.6ZM253,331c-.79,20.54-1.37,45.09-1.46,65.58v.08h.17l.55,0q.1-26.25.95-52.5c.1-3,.34-9.63.48-13.13l-.26-.06A2.06,2.06,0,0,0,253,331Zm32.28,17.36c0-.34,0-.69,0-1l0-.07a13.7,13.7,0,0,0-.69-1.45q.57,28.17.65,56.34l.68-.25Q285.81,375.09,285.3,348.32ZM265.55,331a1.18,1.18,0,0,0-.4-.27c-1.31,22.83-3.57,50-3.12,72.83a1.17,1.17,0,0,1,.34.6,3.32,3.32,0,0,0,.42.87c-.48-19.43.84-38.9,2.07-58.3.24-3.67.71-11.24.95-15.36h0A1.09,1.09,0,0,0,265.55,331Zm8.71,7-.69-.3q-.06,30.6.1,61.2l.06,8.16c.24.09.46.21.69.32q-.18-31.23-.17-62.48C274.25,342.64,274.26,340.34,274.26,338Z"/><path class="cls-11" d="M271.12,315.54c-.09-.61-.09-3.41-.15-2.86a8.4,8.4,0,0,1-3.78,6.52c-1.89,1.61-4.72,1.6-7.06,1.44-3.84-.26-9.09-1.59-10.22-5.82l0-.39a.42.42,0,0,0,0-.12c.18-3.54,2.28-6.43,3.33-9.78.49-1.57,1.34-4.64-.52-5.68-4-2.26-5.76,10.61-6.1,12.62a1,1,0,0,0,1.41,1.2,10.23,10.23,0,0,0-.18,2.62,1,1,0,0,0,.86,1c.7,8,3,17.42,12.47,18.33C271.64,335.59,272.19,323,271.12,315.54Z"/><path class="cls-17" d="M276,399c0,.29.1.57.16.85a2.48,2.48,0,0,1,3.71,1.1c.94,2.46,2.85,4.27,4.24,6.45,1.18,1.84,1.68,4,2.84,5.86,1,1.6,2.59,2.65,3.43,4.39.3.61.35,1.89.78,2.36,1.31,1.46,2,.88,1.95-.74a2.08,2.08,0,0,1,1.86-2.17c-.3-.88-.66-1.72-1-2.46-1.88-4.5-5-8-7.24-12.27-2.42-4.56-2.1-9.82-3.59-14.66a40.67,40.67,0,0,0-3.85-9.31c-3-4.56-7.08-7.76-11.13-11.1-.83-.78-1.62-1.55-2.37-2.33l-.9-1.3c-2.23-3.25-4.51-6.58-4.87-10.63a61.83,61.83,0,0,1,.85-10.79,60.93,60.93,0,0,0,1.55-6.37c.25-1.31,1.26-4.48-.64-5-1.54-.43-2.82,1.44-3.37,2.88-.74,2-1.29,3.21-3.54,3-1.42-.11-2.36-.2-3.77-.34a27.15,27.15,0,0,0-.6-4.11c-.29-.95-.74-3.59-2.27-3.23-1.37.31-1.6,3-1.81,4a27.37,27.37,0,0,0-.57,5.09c-.19,1.17-2.55,3.13-6.47,3-1.47-.06-3.07-.42-3.29,1.42-.34,2.83,1.39,3.55,2.5,4.13a32.49,32.49,0,0,0,4.71,1.83c-.39,1.6-1,3.17-1.37,4.77a21,21,0,0,0-.41,2.58c-2.2-.23-4.54-.29-6.39.95-1.68,1.13-3.52,3.28-3.85,5.34-.29,1.81,1.09,3.6,3.06,3,1.09-.3,1.76-1.33,2.47-2.11a4.28,4.28,0,0,1,4.17-1.74c.36.07-.27-1.88-.16-2.17l.52.06a16.06,16.06,0,0,0,1.95,11.14,20.68,20.68,0,0,0,6.14,6.28c2.6,2.59,5.28,5.1,8.06,7.5l1.11,1a10.59,10.59,0,0,0,2.41,9.87,11.49,11.49,0,0,0-1.91-.12,2.7,2.7,0,0,0-2.23,1.56c-1.56,3.62,3.48,4,5.58,4,2.66.05,5.31,0,8-.12,1.42-.07,3.69.21,4.95-.73A2.35,2.35,0,0,0,276,399Z"/><path class="cls-13" d="M339.22,345c-1-.17-2.94-.48-5.31-.67v-.21a1.19,1.19,0,0,0-.26-.8,1.24,1.24,0,0,0-.87-.8l-.23-.14a2,2,0,0,1,0-.26,1.26,1.26,0,0,0-1.53-.95,1.59,1.59,0,0,0-.36-.43c-.63-.53-1.11.78-1.61,1.24-.71-.68-2.33-1.94-2.51-.73l0,.18-.1,0a1.4,1.4,0,0,0-2.19.72,3.48,3.48,0,0,0-.05.36.37.37,0,0,0-.55.18s0,.05,0,.07a.29.29,0,0,0-.39.23,10.2,10.2,0,0,0-.14,1.64l-1,.16a36.35,36.35,0,0,0-6.53,1.83,23.52,23.52,0,0,0,4.74,5.74c2,1.83,5.53,6.27,8.59,5.57s5.88-3.86,7.94-5.88a41.72,41.72,0,0,0,5.49-6.38C341.3,345.41,340.28,345.2,339.22,345Z"/><path class="cls-17" d="M255.67,343.2c-.23-1.84-1.07-3.54-3.39-3.81a8.1,8.1,0,0,0-3.42.44,12.1,12.1,0,0,0-1.92,1.23c-1.74,1.45-3,1.3-3.84-.42a9.45,9.45,0,0,1-3.74.56c-1.46-.06-3.06-.42-3.28,1.42-.34,2.82,1.39,3.54,2.5,4.13a32,32,0,0,0,4.71,1.83v0C248.53,349.84,256.42,349.28,255.67,343.2Z"/><path class="cls-12" d="M249.14,341.7c.1-.53.43-.92.74-.86s.46.54.35,1.07-.43.92-.73.86S249,342.23,249.14,341.7Z"/><path class="cls-11" d="M271.25,316.42c-2.56.74-5.28,1-7.38-1.13-.22-.22-1.66.17-3,.21s-2.4-.29-2.61-.1c-2.14,2.05-4.85,1.78-7.4,1a.7.7,0,0,0-.86.84c1.21,4.28,8.38,4.07,11.23,1,2.89,3,9.62,3.26,10.89-.92A.69.69,0,0,0,271.25,316.42Z"/><path class="cls-10" d="M251.22,358.52a4.44,4.44,0,0,0-5.31,1.77c-.53.82-.91,1.7-1.38,2.53-1.19,1.05-2.44,2-3.72,3,.55,1.11,1,2.25,1.55,3.36.19.41.37.81.53,1.21.36-.2.75-.46,1.18-.75a26.86,26.86,0,0,0,4.63-4.08c1.76-.39,3.67-1.21,4.32-2.77A3.24,3.24,0,0,0,251.22,358.52Z"/><path class="cls-17" d="M242.91,356.28a3.57,3.57,0,0,0-1.77,1.6,18.08,18.08,0,0,0-2.92,7.24c-.31,1.75-.65,4.93,1.67,5.46s3.34-2,4.08-3.64a29.06,29.06,0,0,0,2.32-8A2.47,2.47,0,0,0,242.91,356.28Z"/><path class="cls-17" d="M294.12,423.65c2.19-1.9,1.48-4.79.54-7.25a13.51,13.51,0,0,1-2.53-1.09c-1.82-1.14-2.52-3.1-3.81-4.71s-3.51-2.36-4.68-4.09c-1.74-2.57-1.28-6.92-4.25-8.7-2-1.2-2.72,0-3.48,1.26l0-.05c.19,1.2.68,7.41,5.88,11.53,2.28,1.81,3.44,2.75,4.11,5.68.41,1.74.52,3.53,1.36,5.15a6.31,6.31,0,0,0,.4.65l.33.43C289.53,424.3,292.07,425.43,294.12,423.65Z"/><path class="cls-12" d="M238.66,341.34a1.63,1.63,0,0,0-.17-.2c-1.17-.07-2.24,0-2.42,1.47,0,.21,0,.42,0,.61a2.45,2.45,0,0,0,1.64-.13,2.06,2.06,0,0,0,1-.59A1,1,0,0,0,238.66,341.34Z"/></g><g id="human3"><path class="cls-18" d="M701.05,311.91c-3.71,1.29-14.89,15.08-6.47,23.51,7.51,7.51,20.11-9.45,20.11-9.45s3.55-.6,3.88-3.84C718.86,319.31,706.56,310,701.05,311.91Z"/><path class="cls-19" d="M696.9,332.1a15.73,15.73,0,0,1-5.56,9.25s-.29,3.72,4.25,6.32,7.3-.68,7.3-.68l2.15-8S701.78,332.92,696.9,332.1Z"/><path class="cls-10" d="M706,323.15c-3.71,5-5.41,5.7-5.41,5.7s-1.13-3.86-3.88-2.72c-2.51,1-2.75,4.51-.33,6.79,1.46,9.37,9.28,12.15,11.14,10.78C714,339,714.69,326,714.69,326Z"/><path class="cls-18" d="M705.07,338.54c-4.63-3.06.9-15.39.9-15.39l-2.26-.18-3.15,5.88s-4.55,7.68-2.63,11,6.82,5.52,8.85,6.07a2.38,2.38,0,0,0,3-1.07,41,41,0,0,0,1.88-6.53C709.49,336.83,708.56,340.84,705.07,338.54Z"/><path class="cls-19" d="M745.77,377.68c-2.07-.1-8.1,1.59-8.1,1.59l-14.56-2.13-.63,6.41,14.62,1.06a30,30,0,0,0,4.69,1.35c4.34.82,5.47-1.31,6.25-4.28C748.18,381,749.05,377.83,745.77,377.68Z"/><path class="cls-20" d="M708.32,371.62c-6.24-6-10.36-25.4-19.69-20.17-10,5.61,4.18,25.72,11.73,29.89,10.41,5.75,22.68,4.35,34.32,4.29l1.31-8.07C728.71,377,713.16,376.29,708.32,371.62Z"/><path class="cls-21" d="M711.64,366.16c-1.18-8.42-8.75-19.17-8.75-19.17s-5.28.48-11.55-5.64c-8.23,6.16-14.39,13.14-13.53,37.46.5,14.18,3.43,32.42,2.87,39.78h28.9s.3-8.93-.17-21.06C708.7,379.15,713,376,711.64,366.16Z"/><rect class="cls-22" x="746.11" y="366.85" width="1.86" height="15.35" transform="translate(210.19 -265.89) rotate(23.4)"/><path class="cls-10" d="M745.48,376c-2.07-.1-8.11,1.6-8.11,1.6l-14.55-2.14-.63,6.41,14.61,1.06a30.29,30.29,0,0,0,4.7,1.35c4.34.82,5.47-1.31,6.25-4.27C747.88,379.22,748.76,376.1,745.48,376Z"/><path class="cls-20" d="M700.47,378.89c-3.61-2-9.49-8.39-12.72-15.25a.82.82,0,1,0-1.49.69c3.06,6.51,9,13.53,13.41,16a34.55,34.55,0,0,0,10.24,3.59c.07-.57.15-1.11.23-1.63A32.61,32.61,0,0,1,700.47,378.89Z"/><path class="cls-20" d="M702.93,360.39a73.43,73.43,0,0,0-4-7,.82.82,0,1,0-1.35.92,73.92,73.92,0,0,1,4,6.89c1.95,3.71,3.8,7.21,6,9.32a12.81,12.81,0,0,0,4.26,2.51c.07-.56.12-1.13.15-1.7a10.72,10.72,0,0,1-3.27-2C706.61,367.37,704.82,364,702.93,360.39Z"/><path class="cls-21" d="M708,369.89c-6.24-6-10.36-25.39-19.7-20.17-10,5.62,4.19,25.72,11.74,29.89,10.4,5.75,22.67,4.36,34.32,4.29l1.31-8.07C728.42,375.22,712.87,374.57,708,369.89Z"/><polygon class="cls-10" points="711.77 532.11 715.41 536.25 718.06 531.9 718.12 528.43 711.42 528.43 711.77 532.11"/><path class="cls-18" d="M723.81,535.45a28.64,28.64,0,0,1-5.75-3.55s-2.47,2.35-6.29.21a11.21,11.21,0,0,0-.42,8h5.77v-1.22a43.43,43.43,0,0,0,9.45,1.22c4.73,0,5.58-1.32,5-2.06S727.91,537.26,723.81,535.45Z"/><polygon class="cls-10" points="671.26 532.11 674.9 536.25 677.55 531.9 678.43 528.43 671.74 528.43 671.26 532.11"/><path class="cls-18" d="M683.31,535.45a28.3,28.3,0,0,1-5.75-3.55s-2.47,2.35-6.3.21a11.27,11.27,0,0,0-.42,8h5.78v-1.22a43.31,43.31,0,0,0,9.45,1.22c4.72,0,5.58-1.32,5-2.06S687.4,537.26,683.31,535.45Z"/><path class="cls-23" d="M677.07,482.63c-2.41,14.95-5,30.84-7.28,45.8h10.5c4.76-17.81,10.33-32.55,15.44-50.86s8.46-39.54,10-59h-25C676.82,439.77,679.6,461.31,677.07,482.63Z"/><path class="cls-24" d="M709.55,418.59H684.43c-3,23.75,15.62,41,22.59,62.17,2.79,16.33,2.58,31.21,2.49,47.67h10.41c3-20.08,5.82-38.89,2.26-58.3S709.55,418.59,709.55,418.59Z"/></g><g id="human4"><path class="cls-18" d="M843.35,313.45c7,2.63,5,21-3.8,23.39-10.26,2.75-7.2-7.33-14.7-16.66C817.9,311.53,841.88,305.67,843.35,313.45Z"/><path class="cls-19" d="M837.7,333.7a15.74,15.74,0,0,0,4.85,9.65s0,3.73-4.72,6-7.23-1.23-7.23-1.23L829.07,340S832.78,334.14,837.7,333.7Z"/><path class="cls-10" d="M834,321.05c1.42,6.06,2.69,7.39,2.69,7.39s2.57-3.1,4.65-1c1.88,1.95.72,5.23-2.41,6.36-5.06,8-13.34,7.46-14.5,5.47-4-6.94.44-19.13.44-19.13S828,321.92,834,321.05Z"/><polygon class="cls-10" points="791.4 531.47 790.16 535.16 785.62 538.47 784.12 533.31 784.91 529.73 791.4 531.47"/><path class="cls-18" d="M777.67,535.47a27.67,27.67,0,0,0,6.45-2.16s1.81,3.05,6,1.85a12.54,12.54,0,0,1-1.57,8.39L783,542l.3-1.25a41.13,41.13,0,0,1-9.46-1.21c-4.58-1.23-5.09-2.8-4.39-3.43S773.26,536.25,777.67,535.47Z"/><path class="cls-25" d="M818.31,421h25.83c-2.2,26.33-22.23,41.14-34.87,62-7.12,16-11.65,32-15.91,49.07-3.34-.94-6.74-1.66-10-2.74,1.8-20.49,4.56-39.07,12.53-57.39S818.31,421,818.31,421Z"/><path class="cls-26" d="M815,373.77c5.24-7.17,11.34-24.51,20.36-19.49,10.75,6-2.72,21.27-9.37,26.62-9.15,7.37-21.72,11-33.15,14.09-1.32-2.42-2.79-4.65-3.58-7.37C796.82,385.58,810.92,379.33,815,373.77Z"/><path class="cls-27" d="M820.41,366.54c1.82-8.3,10.19-18.45,10.19-18.45s5.23.88,11.95-4.74c7.73,6.76,13.34,14.2,10.63,38.39-1.58,14.09-5.89,31.88-5.89,39.26h-29s.54-10.95,1.93-23C822.35,379.72,818.31,376.2,820.41,366.54Z"/><path class="cls-26" d="M825.54,373.72a50.49,50.49,0,0,0,3.88-7.55,67.37,67.37,0,0,1,4.06-8,.82.82,0,1,1,1.38.87,67.11,67.11,0,0,0-3.94,7.82,53.13,53.13,0,0,1-4,7.81,22.36,22.36,0,0,1-6.45,5.49c-.06-.63-.13-1.24-.19-1.82A19.52,19.52,0,0,0,825.54,373.72Z"/><path class="cls-26" d="M844.82,368.55a.82.82,0,0,1,1.5.66,37.12,37.12,0,0,1-8.13,11.84A54.56,54.56,0,0,1,820.8,391c0-.61,0-1.21.05-1.78a52.1,52.1,0,0,0,16.25-9.36A35.38,35.38,0,0,0,844.82,368.55Z"/><path class="cls-27" d="M826.22,374.19C831.17,367,834.45,350,844,353.93c8.84,3.63.11,20.76-6.33,26.51-8.89,7.93-21.36,11.64-33,14.33-1.25-2.5-2.62-4.86-3.66-7.48C808.45,385.74,822.37,379.74,826.22,374.19Z"/><path class="cls-24" d="M794.63,403.2l15-.9a.29.29,0,0,0,.25-.16.3.3,0,0,0,0-.29l-13.19-25.92a.34.34,0,0,0-.12-.12.29.29,0,0,0-.18-.05l-15,.9a.33.33,0,0,0-.25.15.34.34,0,0,0,0,.31L794.33,403a.34.34,0,0,0,.12.12A.29.29,0,0,0,794.63,403.2Z"/><path class="cls-10" d="M793.17,391.16a5.33,5.33,0,0,1-3.5,5.19c-1.6.39-4.47-6-2.67-7S792.91,388.71,793.17,391.16Z"/><polygon class="cls-10" points="885.23 526.72 884.51 532.18 879.89 530.06 877.91 527.21 883.46 523.48 885.23 526.72"/><path class="cls-18" d="M879.89,530.06s3.35.57,5.34-3.34a11.19,11.19,0,0,1,4.83,6.44l-4.79,3.23-.68-1a43.66,43.66,0,0,1-7.16,6.28c-3.92,2.63-5.37,2-5.34,1.11s2.61-2.78,5-6.55A29.17,29.17,0,0,0,879.89,530.06Z"/><path class="cls-28" d="M859,480.27c8.94,13.9,17.66,27.91,25.77,42.32-2.85,2-5.73,3.76-8.55,5.87-12-16.26-25.79-29.68-36-47.51S826.56,441,822,421h25.29C854.67,440.13,851,461.27,859,480.27Z"/></g><g id="child"><path class="cls-29" d="M621.12,177.51c-1.66,3.15,3.19,3.15,1.28,5.42-.46.55,1.22,2.89,1.23,3.59,2.89-6.68,4.77-12.29,4.92-12.72l-.62.09C625,174.33,622.48,174.93,621.12,177.51Z"/><path class="cls-30" d="M614.35,242.47l-.15,3.79c-.86.73-4.39-.18-5.37,1.68-1.16,2.19,5.16,2,7.51,2s2.32-1.93,2.2-3.51a19.29,19.29,0,0,1,.38-4.19Z"/><path class="cls-30" d="M603.28,240.91l-.56,3.75c-.93.64-4.35-.65-5.52,1.1-1.38,2.06,4.92,2.5,7.26,2.8s2.5-1.66,2.56-3.25a19.14,19.14,0,0,1,.83-4.12Z"/><path class="cls-31" d="M633,173.63c13.62,2.53,7.59,17.66,7.59,17.66l-24.24-5.2S616.84,170.62,633,173.63Z"/><path class="cls-19" d="M626,199.89h.41c1,0,3.07.62,3.06,1.63V206c0,1-2.07,2-3.08,2H626c-1,0-2.25-.84-2.25-1.85l.43-4.42A1.84,1.84,0,0,1,626,199.89Z"/><path class="cls-19" d="M626,199.89h.41c1,0,3.07.62,3.06,1.63v3.39a10.57,10.57,0,0,1-2.89.17,10.25,10.25,0,0,1-2.69-.55l.27-2.81A1.84,1.84,0,0,1,626,199.89Z"/><path class="cls-19" d="M622.37,205.85l5.71-.3s1,.17,1,.16c1.77.08,5.16-.15,6.87,1.78a8,8,0,0,1,1,1.49,2.33,2.33,0,0,0-.11.58H618C620,206,622.37,205.85,622.37,205.85Z"/><path class="cls-30" d="M622.37,205.85l.37,0a4.41,4.41,0,0,0,.74,1,4.77,4.77,0,0,0,5.61.69,5,5,0,0,0,1.92-2c1.59.14,3.8.68,5,2a8,8,0,0,1,1,1.49c-.3.59-.89,14.49-1.75,19.23-.07.37-.55.9-.44,1.26-3.48.34-16.53,1.57-22.62-2.07l3.7-11.53C617.63,206.22,622.37,205.85,622.37,205.85Z"/><path class="cls-32" d="M637,209a8,8,0,0,0-1-1.49l-.09-.08c.56,6.86-4.19,14.81-11.36,14.79-4,0-8-2.2-8.53-6.48,0-.12,0-.25,0-.38,0,.18-.07.35-.11.53l-3.7,11.53c6.09,3.64,19.14,2.41,22.62,2.07-.11-.36.37-.89.44-1.26C636.1,223.47,636.69,209.57,637,209Z"/><path class="cls-33" d="M636,226a.44.44,0,0,1,.44.51,21,21,0,0,1-1.15,4.57c-1.06.05-18.47.43-25.25-3.61l2-1.47Z"/><path class="cls-34" d="M616.89,186c1.29.09,2.23,1.62,2.11,3.44s-1.26,3.22-2.54,3.13-2.23-1.62-2.11-3.44S615.61,186,616.89,186Z"/><path class="cls-10" d="M616.56,185.24a11.28,11.28,0,0,1,13.66-8.16l2.21.56a11.28,11.28,0,0,1,8.16,13.65l-1,4a11.27,11.27,0,0,1-13.66,8.15l-2.21-.55a11.29,11.29,0,0,1-8.16-13.66Z"/><path class="cls-35" d="M620.5,179.17a11.26,11.26,0,0,1,9.72-2.09l2.21.56a11.28,11.28,0,0,1,8.16,13.65l-.16.65a9,9,0,0,1-.83-3.9c-.52.39-.64,1.3-1.1,1.24a10.87,10.87,0,0,1-3.1-7.86c-3.57,2.3-7.8,2.65-12,2.54a1.8,1.8,0,0,1,.65-1.31c-1,.33-2.41.6-3.38.93.12-.91.19-1.36.31-2.28a4.93,4.93,0,0,1-3.83,2.14A11.38,11.38,0,0,1,620.5,179.17Z"/><path class="cls-36" d="M641.64,186.92a.78.78,0,0,1,.14-.35C641.73,186.69,641.69,186.81,641.64,186.92Z"/><path class="cls-10" d="M642.24,191.35c1.28.59,1.69,2.47.9,4.2s-2.48,2.65-3.76,2.07-1.69-2.47-.9-4.2S641,190.76,642.24,191.35Z"/><path class="cls-10" d="M635.51,199.09a17.59,17.59,0,0,0,3-4.05,4.93,4.93,0,0,0,1.44.46,3.36,3.36,0,0,0,3.13-1.24,3.25,3.25,0,0,0,.41-.67,4.42,4.42,0,0,1-.4,2c-.79,1.73-2.48,2.65-3.76,2.07a2,2,0,0,1-.51-.35,11.28,11.28,0,0,1-12.94,6.14l-2.21-.55a11.33,11.33,0,0,1-3.4-1.5,19.73,19.73,0,0,0,3.36.91A13.41,13.41,0,0,0,635.51,199.09Z"/><path class="cls-31" d="M626.48,175.32a55.08,55.08,0,0,1-4,3.8A6.89,6.89,0,0,1,626.48,175.32Z"/><path class="cls-31" d="M633.49,176.28a17.45,17.45,0,0,1-7.67,4.67A11.14,11.14,0,0,1,633.49,176.28Z"/><path class="cls-31" d="M623.93,175.55c5.33-1.89,13.09-.31,15.11,1.78s-1.22,1.69-1.22,1.69-3.62,4.38-12.69,3.14a6.89,6.89,0,0,1,.69-1.21,17.45,17.45,0,0,0,7.67-4.67,11.14,11.14,0,0,0-7.67,4.67,19,19,0,0,1-3.88.77,6.41,6.41,0,0,1,.5-2.6,55.08,55.08,0,0,0,4-3.8,6.89,6.89,0,0,0-4,3.8,29.24,29.24,0,0,1-4.81,3.43A9.94,9.94,0,0,1,623.93,175.55Z"/><path class="cls-31" d="M638.55,178.88a6.37,6.37,0,0,1,2.41,4.76c-.05,2.91-1.41,3.46-1.41,3.46-3-4.79-2.93-8.49-2.93-8.49Z"/><path class="cls-31" d="M641.64,186.92a18.7,18.7,0,0,1-1,4.37,33.91,33.91,0,0,1-.34-7.11S641.91,184.5,641.64,186.92Z"/><path class="cls-37" d="M621.23,227.41a18.66,18.66,0,0,0-9.4-1.46c-8.21.76-8.55,10.73-9.48,16.3l5.79.82C609,238.69,610,234,610,234a22.56,22.56,0,0,1,5.58.65C617.26,232.09,619.27,229.76,621.23,227.41Z"/><path class="cls-38" d="M621.43,227.55a33.67,33.67,0,0,1,14.21,1.85l.21,0c-.82,3.41-2.4,5.47-5,5.61-3.53.19-6.71-1.32-10.05-1.1,0,0-.5,6-1.4,10.35l-5.78-.5C612.88,240.23,613.22,228.31,621.43,227.55Z"/><path class="cls-39" d="M623.42,205.79s.46,1.64,3.26,1.64,3.11-1.7,3.11-1.7a1.66,1.66,0,0,1,1.94-.18s-.38,3.53-5.05,3.53c-5.07,0-4.94-3.23-4.94-3.23A1.41,1.41,0,0,1,623.42,205.79Z"/><path class="cls-40" d="M625.52,172.11a5.6,5.6,0,0,1-1-.63,30.36,30.36,0,0,1,7-.09l.83.12.24,0a13.18,13.18,0,0,1,6.08,2.69,2,2,0,0,1-.13-1,2.27,2.27,0,0,1,1.37,1.6c0-.24,0-1,1.37-1.77a2.9,2.9,0,0,1-.29,2.1,2.14,2.14,0,0,1,1.6-.12,1.91,1.91,0,0,1-1.6,1,1.91,1.91,0,0,1,1.2,1.27l-.86-.11a10.51,10.51,0,0,1,1.32,3,10,10,0,0,1,.3,1.72,6.2,6.2,0,0,1,0,1.72s-.42.06-1.06-.6c0,.5.06,1,.05,1.48a12.62,12.62,0,0,1-4.88-8c-3,1.9-4.76,4-9.88,4.68a16.93,16.93,0,0,1,3.93-4.11c-2.47,1.06-4.69,2.61-7.11,2.74.18-1.36.31-2.28.5-3.64-2.67,2-4.23,4.08-6.83,5a13.2,13.2,0,0,1,.57-1.67,7.84,7.84,0,0,1-1.9.88S618.56,173.65,625.52,172.11Z"/><path class="cls-10" d="M613.54,208.11a6,6,0,0,1-4.88-.91c-3.18-2.17-4-7.33-3.62-11.76l-4.31-.43c-.83,8.38.86,14.06,5,16.89a11.62,11.62,0,0,0,6.63,1.86,18.35,18.35,0,0,0,2.25-.15C614.25,211.78,613.88,210,613.54,208.11Z"/><path class="cls-10" d="M650.31,213.86c-2.19-3.2-6.24-5.38-9.5-6.31,0,1.63-1.39,4-1.81,5.62,2.21.69,6,1.56,7.26,3.47,1.8,2.62,2.59,6.59.52,11.57l3.59,1.77C653.13,223.37,653.11,218,650.31,213.86Z"/><path class="cls-30" d="M612.27,214.5c5,0,10.25-2.62,10.54-2.76l-1.07-5.89c-1.38.7-6.45,1.65-9.41,1.7C612.18,209.18,612.24,212.84,612.27,214.5Z"/><path class="cls-30" d="M642.58,211.7c.34-1,.88-2.74,1.23-3.71a44.82,44.82,0,0,0-12.08-2.44l.72,7.18a36.61,36.61,0,0,1,9.22,2.11C641.86,214.26,642.38,212.27,642.58,211.7Z"/><path class="cls-10" d="M600.71,196.26s-4.05-3.87-2.68-4.66,7.31.29,7.64.34.53,2.95-.19,3.81a7.88,7.88,0,0,1-1,1.1l-3.81-.65Z"/><path class="cls-10" d="M600.76,184.61l.11,0-1,4.42s6.53,4.34,6.15,1.36C605.44,186.25,600.76,184.61,600.76,184.61Z"/><polygon class="cls-41" points="597.15 191.57 599.24 193.69 605.69 189.41 603.79 187.5 597.15 191.57"/><rect class="cls-41" x="599.14" y="188.14" width="6.48" height="6.64" rx="1.73" transform="translate(106.49 -200.47) rotate(20.69)"/><rect class="cls-42" x="597.29" y="186.28" width="6.48" height="6.64" rx="1.73" transform="translate(105.73 -199.96) rotate(20.69)"/><path class="cls-10" d="M604.7,194.48a3.58,3.58,0,0,0-.38-1.65c-.41-.72-1.47-1.06-1.31-3.14s1.45-1.1,1.42-.7,2,1.83,2.09,2.95-.49,3.43-1,3.81S604.7,194.48,604.7,194.48Z"/><path class="cls-10" d="M603.06,186.48a1.13,1.13,0,0,1-2.17-.46,1,1,0,0,1,1.27-.67A1,1,0,0,1,603.06,186.48Z"/><path class="cls-10" d="M601.42,185.66a1.13,1.13,0,1,1-.89-1.13A1,1,0,0,1,601.42,185.66Z"/><path class="cls-10" d="M598.58,185.61a1.13,1.13,0,1,1-1.26.67A1,1,0,0,1,598.58,185.61Z"/><path class="cls-10" d="M597.76,187.18a1,1,0,0,1,.41,1.38.93.93,0,1,1-1.69-.71A1,1,0,0,1,597.76,187.18Z"/><path class="cls-10" d="M647.11,226.58s-2.23.22-2.81,1.62,1.12,1.22.58,2.32-1.86,4.27,1.35,4.44a5.53,5.53,0,0,0,5.43-3.86,12.45,12.45,0,0,0-.32-3.93Z"/><path class="cls-10" d="M651.54,228.21a3.21,3.21,0,0,1-1.23,1.64,3.31,3.31,0,0,1-3.8-.07,5.3,5.3,0,0,1-1.7-2.26,1.91,1.91,0,0,0-.51.68c-.58,1.4,1.12,1.22.58,2.32s-1.86,4.27,1.35,4.44a5.53,5.53,0,0,0,5.43-3.86A8.9,8.9,0,0,0,651.54,228.21Z"/></g><g id="human5"><path class="cls-18" d="M529.8,98.26c-3.59,1.58-13.69,16.18-4.65,23.94,8.06,6.92,19.33-11,19.33-11s3.49-.88,3.58-4.13C548.13,104.29,535.15,95.92,529.8,98.26Z"/><path class="cls-19" d="M527.21,118.72a15.76,15.76,0,0,1-4.84,9.64s0,3.74,4.72,6,7.22-1.23,7.22-1.23l1.54-8.13S532.13,119.16,527.21,118.72Z"/><path class="cls-19" d="M581.71,170.42c-2.06-.1-8.1,1.6-8.1,1.6l-14.55-2.14-.64,6.41L573,177.36a31,31,0,0,0,4.69,1.34c4.34.83,5.48-1.31,6.26-4.27C584.12,173.7,585,170.58,581.71,170.42Z"/><path class="cls-43" d="M544.27,164.36c-6.24-6-10.36-25.39-19.7-20.16-10,5.61,4.19,25.71,11.74,29.88,10.4,5.75,22.67,4.36,34.32,4.29l1.31-8.07C564.65,169.69,549.11,169,544.27,164.36Z"/><path class="cls-44" d="M548.81,151.55c-1.81-8.3-14.5-18.44-14.5-18.44s-5.22.88-11.94-4.75c-7.73,6.77-11.08,14.35-6.6,38.27,2.25,12,8.13,28.12,1.85,39.38h29c0-1-3.08-33.29-2-36.81C546.91,161.78,550.24,158.11,548.81,151.55Z"/><rect class="cls-22" x="582.05" y="159.59" width="1.86" height="15.35" transform="translate(114.4 -217.8) rotate(23.4)"/><path class="cls-10" d="M581.42,168.69c-2.07-.09-8.1,1.6-8.1,1.6l-14.56-2.14-.63,6.41,14.62,1.07a30,30,0,0,0,4.69,1.35c4.34.82,5.47-1.32,6.25-4.28C583.83,172,584.7,168.85,581.42,168.69Z"/><path class="cls-43" d="M538.87,153.14a73.58,73.58,0,0,0-4-7,.82.82,0,0,0-1.36.93,71.54,71.54,0,0,1,3.95,6.88c2,3.71,3.8,7.21,6,9.32a10.64,10.64,0,0,0,2.7,1.83c.21-.52.41-1,.62-1.52a8.94,8.94,0,0,1-2.19-1.49C542.55,160.12,540.76,156.73,538.87,153.14Z"/><path class="cls-43" d="M536.41,171.64c-3.6-2-9.49-8.39-12.72-15.26a.81.81,0,0,0-1.09-.39.82.82,0,0,0-.39,1.09c3.06,6.5,8.95,13.53,13.41,16a33.16,33.16,0,0,0,8.85,3.3c0-.59,0-1.15-.05-1.7A31.51,31.51,0,0,1,536.41,171.64Z"/><path class="cls-44" d="M544,162.63c-6.24-6-10.37-25.39-19.7-20.16-10,5.61,4.19,25.71,11.74,29.89,10.4,5.74,22.67,4.35,34.31,4.29l1.31-8.08C564.36,168,548.82,167.31,544,162.63Z"/><path class="cls-10" d="M535.57,109.1c-3.32,5.26-5,6.1-5,6.1s-1.42-3.77-4.08-2.42c-2.42,1.22-2.39,4.71.2,6.79,2.16,9.23,10.17,11.41,11.92,9.91,6.1-5.24,5.83-18.23,5.83-18.23Z"/><path class="cls-18" d="M519.25,122.43c-5.49,9.09-3.92,12.43-5.06,18.22-1.1,5.57-2.12,11.07-.43,11.07,1.13,0,11.58-12.65,12.81-22.66.6-4.85,5.2-4.13,4.22-11.42-.88-6.51,13.69-6.39,13.69-6.39l-13-13.37C517.89,98.93,523.64,115.17,519.25,122.43Z"/><path class="cls-10" d="M583.67,285.79a13.88,13.88,0,0,1-1.93-4.09h-6.69l1.29,3.68,3.64,4.13,6.24,1.77,3.15-2.13S584.86,287.26,583.67,285.79Z"/><path class="cls-18" d="M589.37,289.15a14.3,14.3,0,0,1-7.78-.51,14,14,0,0,1-5.25-3.26,9,9,0,0,0-1,4.57,10.22,10.22,0,0,0,.54,3.47h2v-2.53c2.74.68,6.25,2.53,10.09,2.53C596.82,293.42,596.51,290.55,589.37,289.15Z"/><path class="cls-45" d="M546.61,206h-29c0,15.87,12.31,22.33,26.81,22.33,5.47,0,14.15.71,14.15.71l15,52.65H583c0-19.57-6.72-55.27-10.67-60.15C566.14,213.88,546.61,206,546.61,206Z"/><path class="cls-10" d="M553.38,288.83c-1.19-1.47.3-4.09.3-4.09H547l-.93,3.68,3.64,4.13,6.23,1.77,3.16-2.13S554.56,290.3,553.38,288.83Z"/><path class="cls-18" d="M559.08,292.19a14.35,14.35,0,0,1-7.79-.51,14.2,14.2,0,0,1-5.24-3.26,9,9,0,0,0-1,4.57,10,10,0,0,0,.54,3.47h2v-2.53c2.74.68,6.25,2.53,10.09,2.53C566.53,296.46,566.21,293.59,559.08,292.19Z"/><path class="cls-46" d="M580.62,211.36c-6.4-2.76-34-5.35-34-5.35h-29c-3.61,5.13-5.85,14.24-3.86,19.58,2.78,7.47,11.47,8.9,20,8.35,4.32-.28,33-4.89,33-4.89s-19.17,37.47-21.25,55.69h9.62C558.68,274.08,596.29,218.12,580.62,211.36Z"/></g></svg>