<svg id="Layer_1" data-name="Layer 1" xmlns="http://www.w3.org/2000/svg" xmlns:xlink="http://www.w3.org/1999/xlink" viewBox="0 0 1000 600"><defs><style>.cls-1{fill:none;}.cls-2{fill:#d9e3ff;}.cls-3{fill:#85a2d2;}.cls-4{fill:#6689bc;}.cls-5{fill:#37639a;}.cls-6{fill:#42aeba;}.cls-7{fill:#fff;}.cls-8{fill:#fc5252;}.cls-9{fill:#f8f9ff;}.cls-10{fill:#007796;}.cls-11{fill:#e0935f;}.cls-12{fill:#030303;}.cls-13{fill:#f2b78b;}.cls-14{fill:#014f29;}.cls-15{fill:#297c53;}.cls-16{fill:#00001c;}.cls-17{fill:#14142e;}.cls-18{fill:#4da78b;}.cls-19{fill:#0c3265;}.cls-20{fill:#2e5990;}.cls-21{clip-path:url(#clip-path);}.cls-22{fill:#005d4d;}.cls-23{fill:#219587;}.cls-24{fill:#001738;}.cls-25{fill:#002853;}.cls-26{fill:#a7d4c6;}.cls-27{fill:#003a61;}.cls-28{fill:#00527c;}</style><clipPath id="clip-path"><path class="cls-1" d="M369.49,406.79s3.3,6.33,8.24,8.24l7.14-19.79-10-6.4Z"/></clipPath></defs><title>illustration</title><path id="bg" class="cls-2" d="M768.69,530.16c11.62,0,18.41-30.79,44.87-26.68s108.73.24,122.08-66.49-29.47-111.82-113.16-116.2S758.53,69.49,644,69.49c-97.78,0-86.13,106.47-133.41,134s-80.15-47-147.86-53c-54.22-4.76-98,49.49-96.7,94.5,1.71,59.81-57.44,104.44-134.33,73.37S-1.93,382.58,87.88,435.87C180,490.55,244.74,491.76,272,530.16Z"/><g id="plant_1" data-name="plant 1"><path class="cls-3" d="M910.52,268.58,909,267.13A380.15,380.15,0,0,0,805.19,482.34l1.77.24A378.22,378.22,0,0,1,910.52,268.58Z"/><path class="cls-3" d="M934.31,244.64c-4.4-5.32-24.79,7.22-26,24.77C925.27,267.2,938.53,249.78,934.31,244.64Z"/><path class="cls-3" d="M896.34,282.46c11.65,12.57,34.06,10.6,35.29,4.09C933,279.74,911.76,271.09,896.34,282.46Z"/><path class="cls-3" d="M876.27,307.54c14.88,13.57,41,9.2,41.92,1.53C919.29,301,893.47,292.37,876.27,307.54Z"/><path class="cls-3" d="M810.18,457.55c20.62,6.67,44.91-11.45,42.7-19.93C850.66,428.44,820.72,431.94,810.18,457.55Z"/><path class="cls-3" d="M855.48,339.06c18.95,14.11,49.17,6.1,49.49-2.86C905.52,326.57,874.18,318.78,855.48,339.06Z"/><path class="cls-3" d="M820.39,417.77c22.66,10,52.22-6.33,50.71-15.84C869.7,391.57,835.28,390.88,820.39,417.77Z"/><path class="cls-3" d="M836.32,376c22.74,13.32,55.62.66,55.08-9.3C891.08,355.87,855,350.38,836.32,376Z"/><path class="cls-3" d="M890.37,246.61c-7.69,2.2-8.73,26.52,6,35.85C905.28,266.17,897.86,244.69,890.37,246.61Z"/><path class="cls-3" d="M866.29,265.42c-9,3.44-8.22,32.68,10,42.12C885.34,287.33,875.06,262.38,866.29,265.42Z"/><path class="cls-3" d="M782.18,417c-7.71,8.49,5.79,40.11,28,40.6C810.44,430.92,789.81,409.13,782.18,417Z"/><path class="cls-3" d="M839.65,289.88c-10.47,5.27-6.65,40.37,15.83,49.18C864,314,849.82,285.23,839.65,289.88Z"/><path class="cls-3" d="M793.39,368.85c-9.85,8.44,1.8,45.5,27,48.92C823.68,388.52,803,361.21,793.39,368.85Z"/><path class="cls-3" d="M813.47,321.92c-11.35,7.43-3.31,47.22,22.85,54.1C843.05,346.44,824.51,315.33,813.47,321.92Z"/><path class="cls-4" d="M934.11,345c-12.45,5.44-75.21,34.43-113.31,82-30.95,38.65-23.72,80.49-22.27,87.28,7-.07,49.35-2.15,80.31-40.81C917,425.86,931.52,358.3,934.11,345Z"/><path class="cls-5" d="M893.49,452.48l-47.92,5.3,60-74.88L925,380.75c.31-1,.61-2,.9-2.93l-17.84,2L933.5,348c.25-1.19.45-2.2.61-3l-2.81,1.25L874.6,417l-4-35.83c-.88.62-1.75,1.26-2.63,1.9l4.1,37-60,74.88-5.1-46c-.82,1.74-1.56,3.48-2.26,5.2l4.86,43.95-11.47,14.33,2.2,1.76,42.7-53.32,48.51-5.37C892.24,454.51,892.86,453.5,893.49,452.48Z"/></g><g id="plant_2" data-name="plant 2"><path class="cls-3" d="M108.71,341.85l.82-1.16a258.75,258.75,0,0,1,96.92,130.56l-1.16.38A257.43,257.43,0,0,0,108.71,341.85Z"/><path class="cls-3" d="M89.74,328.9c2.27-4.12,17.5,1.65,20.58,13.22C98.67,342.82,87.58,332.87,89.74,328.9Z"/><path class="cls-3" d="M120,349.32c-6.18,9.88-21.41,11.44-23.07,7.24C95.09,352.19,108.2,343.69,120,349.32Z"/><path class="cls-3" d="M136.58,363.51c-8.21,11-26.24,11.4-27.82,6.39C107,364.62,123.15,355.57,136.58,363.51Z"/><path class="cls-3" d="M199.94,455.32c-12.93,7.09-31.48-1.91-31.08-7.87C169.16,441,189.62,439.55,199.94,455.32Z"/><path class="cls-3" d="M154.51,381.92c-10.86,11.85-32.09,10.37-33.45,4.42C119.46,380,139.41,370.76,154.51,381.92Z"/><path class="cls-3" d="M188,430c-13.86,9.6-35.71,2.46-35.92-4.09C151.72,418.83,174.64,414,188,430Z"/><path class="cls-3" d="M172,404.17C158.55,416,135,411.72,134,405,132.86,397.71,156.26,389.42,172,404.17Z"/><path class="cls-3" d="M119.37,324.59c5.41.49,9.22,16.61.59,24.73C111.9,339.57,114.11,324.27,119.37,324.59Z"/><path class="cls-3" d="M137.86,334.08c6.48,1.15,9.68,20.79-1.28,29.43C127.93,351.16,131.62,333.18,137.86,334.08Z"/><path class="cls-3" d="M213.46,424.6c6.24,4.69,1.26,27.54-13.52,30.72C196.36,437.55,207.36,420.35,213.46,424.6Z"/><path class="cls-3" d="M158.79,347c7.68,2.19,9.61,26.13-4.28,34.9C145.6,366.23,151.4,345.22,158.79,347Z"/><path class="cls-3" d="M199.82,393.88c7.66,4.38,4.61,30.65-11.79,36.15C182.09,410.91,192.39,390,199.82,393.88Z"/><path class="cls-3" d="M180.39,365.09c8.54,3.51,8.25,31.14-8.35,39.08C163.76,385.26,172.17,362.1,180.39,365.09Z"/><path class="cls-4" d="M89.7,418.93c.2-.62.4-1.24.61-1.86A269.06,269.06,0,0,1,222,510.84l-1.35,1A267.29,267.29,0,0,0,89.7,418.93Z"/><path class="cls-4" d="M91,417.59c.18.3.36.6.53.9l-1,.42c-9.68,4.06-27.34-7-28.37-7.35l-2.55-1.48c1-.13,2-.24,3-.36C63.37,409.33,85.44,408,91,417.59Z"/><path class="cls-4" d="M208,495c.25.27.5.55.74.83l-.64.57c-16.2,13-45.22,6.37-46.44,6.93l-2.13-.32,1.59-1.27C162,500.69,192.26,477.53,208,495Z"/><path class="cls-4" d="M183.57,470.88l.83.73c-.19.23-.39.45-.58.67-13,13.8-39.31,11.17-40.36,11.7l-2.18-.07,1.47-1.49C143.5,481.35,168.05,457.49,183.57,470.88Z"/><path class="cls-4" d="M157.62,451l.91.63-.51.76c-9.87,13.66-33,14.08-33.91,14.56l-2.23.17,1.34-1.68C123.82,464.38,143,441.15,157.62,451Z"/><path class="cls-4" d="M130.75,435l1,.51-.44.84c-7,12.76-26.66,15.27-27.4,15.69l-2.24.39,1.19-1.84C103.29,449.69,117.6,428.25,130.75,435Z"/><path class="cls-4" d="M106.27,423.86l1,.42-.36.89c-4.73,11.12-20.6,14.61-21.2,15l-2.25.58,1.06-2C84.87,438,95.09,419.46,106.27,423.86Z"/><path class="cls-4" d="M211.63,444.89l1-1.81c.34.83.68,1.67,1,2.5,1.23,1.49,12.58,36-4.25,49.71l-.65.57c-.24-.28-.49-.56-.74-.83C193.2,479,210.9,446.69,211.63,444.89Z"/><path class="cls-4" d="M182.21,426.19l.81-1.95,1.25,2.36c1.13,1.19,14.13,30,.73,44.33l-.59.67-.83-.73C168.91,458.51,181.72,427.82,182.21,426.19Z"/><path class="cls-4" d="M152.58,412.3l.63-2.08,1.46,2.22c1,.93,14.54,24.26,4.38,38.36l-.51.76-.92-.62C143.73,441.84,152.28,413.72,152.58,412.3Z"/><path class="cls-4" d="M123.37,402.75c.14-.72.29-1.44.44-2.17l1.63,2.07c.86.7,14,18.94,6.73,32l-.43.84-1-.51C118.17,428.68,123.21,404,123.37,402.75Z"/><path class="cls-4" d="M98.09,398.13c.1-.75.19-1.49.28-2.23l1.78,1.92c.69.52,12.35,14.21,7.52,25.54l-.36.9-1-.41C95.49,419.7,98,399.11,98.09,398.13Z"/><path class="cls-4" d="M183.1,406c-5-8.48-5.07-17.51-.09-27.52h0c5.36-10.73,2.3-19.63-9.78-25.9-13.39-7-18.83-19.67-15.42-36.33,2.1-10.11-5.84-15.32-15.11-20-1.78-.91-3.63-1.82-5.43-2.76-9.92-5.08-13.29-12.25-14.57-16.41-1.63-5.4-1.19-10.95,1.51-14.43s8.09-5.23,14.11-4.22c4.47.71,13.4,3.92,19.32,15.15,1.06,2,2,4.1,2.92,6.11,4.72,10.57,7.75,19.4,18.36,21.09,17.68,2.71,29.58,19.09,27.14,36-2.13,15.11,1.07,23.18,12.11,30.27a30.63,30.63,0,0,1,13.94,30c-1.66,14.16-12.12,25.66-21.78,26.26S189,415.6,183.1,406Z"/><path class="cls-5" d="M170.31,331.23l-.3,1.49C168.92,332.39,169.21,330.9,170.31,331.23Z"/><path class="cls-5" d="M191.85,394.27l-.71,1.3C190.24,394.92,190.93,393.62,191.85,394.27Z"/><path class="cls-5" d="M190.36,320.59l-1.5-.55C189.05,318.82,190.55,319.38,190.36,320.59Z"/><path class="cls-5" d="M220.42,388.94l-1.22-1C219.72,386.81,220.94,387.84,220.42,388.94Z"/><path class="cls-5" d="M207.82,407.11a225,225,0,0,0-22.09-68.83q-7.81-3.15-15.72-5.56l.3-1.49q7.2,2.17,14.33,5a224.72,224.72,0,0,0-40.06-54.54q-5-.31-9.88-.37c-1.19,0-1.34-1.57-.14-1.56q4.14,0,8.33.25-5.88-5.76-12.21-11.12a.76.76,0,1,1,1-1.15q6.36,5.4,12.27,11.2-.31-4.2-.8-8.47c-.14-1.23,1.48-1.15,1.62.08q.56,5.08.89,10.08a226,226,0,0,1,40.28,54.93q1.71-7.57,3-15.48l1.5.55q-1.4,8.71-3.37,17a226.09,226.09,0,0,1,22.18,69.28c3.55-6,6.91-12.37,10-19l1.22,1q-5.07,10.65-10.91,20.33a226.2,226.2,0,0,1,2,38.94l-.67,0-.67,0a225.36,225.36,0,0,0-2-38.69,179,179,0,0,0-17-13.9l.71-1.3A180.22,180.22,0,0,1,207.82,407.11Z"/></g><g id="phone"><path class="cls-6" d="M812.63,263.18V499.5A30.66,30.66,0,0,1,782,530.16H218a30.67,30.67,0,0,1-30.66-30.66V263.18A30.66,30.66,0,0,1,218,232.52H782a30.65,30.65,0,0,1,30.66,30.66Z"/><rect class="cls-7" x="362.82" y="139.64" width="272.13" height="483.38" transform="translate(117.54 880.22) rotate(-90)"/><path class="cls-8" d="M575.42,339.25c-13.32-35-56.27-42.95-76.54-6.27h0c-20.26-36.68-63.21-28.69-76.54,6.27-18.65,48.88,64.5,114.44,76.54,114.44S594.07,388.13,575.42,339.25Z"/><path class="cls-9" d="M533.6,378.18l-16.48,26.46L480.65,346.1l-20,32.08H424.92c.88,2.11,1.86,4.22,2.92,6.31h36.32L480.65,358l36.47,58.54,20-32.08h32.82c1.06-2.09,2-4.2,2.92-6.31Z"/><path class="cls-10" d="M226.16,351.2v60.27a3.87,3.87,0,0,1-3.88,3.88h0a3.94,3.94,0,0,1-1.71-.39,3.9,3.9,0,0,1-2.17-3.49V351.2a3.89,3.89,0,0,1,1.57-3.12,3.83,3.83,0,0,1,2.31-.76h0a3.88,3.88,0,0,1,3.88,3.88Z"/><path class="cls-10" d="M786.75,352.32v58.32a10.08,10.08,0,0,1-10.07,10.08h0a10.07,10.07,0,0,1-10.07-10.08V352.32a10.07,10.07,0,0,1,10.07-10.07h0a10.09,10.09,0,0,1,10.07,10.07Z"/></g><g id="human1"><path class="cls-11" d="M242.69,315.59a15.74,15.74,0,0,1-4.85,9.64s0,3.74,4.72,6,7.23-1.23,7.23-1.23l1.54-8.13S247.61,316,242.69,315.59Z"/><path class="cls-12" d="M252.58,296.09c-.17-1-1.18-2.65-3.82-2.58a3.21,3.21,0,0,0-3.17,3.18,3.62,3.62,0,0,0-4.77-1c-2.06,1.27-1.95,3.12-1.43,5a3.11,3.11,0,0,0-3.61,2.29,5.32,5.32,0,0,0,1.81,5.75,2.86,2.86,0,0,0-2.06,3.83c1.1,3.37,6.61,3.34,6.61,3.34l-1.57-7h0c1.29-1.22,5.08-4.89,4.44-5.24-.47-.25-2-.83-3.13-1.25l5.1-2.45-.11-.34a31.15,31.15,0,0,0,5.36,1.22l2.94,2a28.68,28.68,0,0,0-.66,4.14c.13.36,1.68-2.86,1.68-2.86,3.65-2,2.53-5.76,1-7.37A4,4,0,0,0,252.58,296.09Z"/><path class="cls-12" d="M241.48,299.85c-.1.1-1.78,5.93-1.78,5.93v6.55s7.51,5,8.66,5,4.35-8.15,4.35-8.15l3.16-8.71L249,297.74S241.58,299.75,241.48,299.85Z"/><path class="cls-13" d="M254.37,303.42c-2.63.16-6,.73-8-.49a94.08,94.08,0,0,1-.79,11.26l-1.42-.57s-.59-3.41-.66-3.49c-.6-.64-2.71-2.58-4.47-.76s-.72,5.23,2.41,6.36c5.06,8,13.34,7.46,14.5,5.46,3-5.21,1.27-13.39.19-17.13A2.93,2.93,0,0,0,254.37,303.42Z"/><path class="cls-12" d="M247.17,300.41s-6.44,1.83-6.46,1.89,4.29,7.86,4.29,7.86l.62,4c.41-4.28.33-6.5,2.33-8.07a12.56,12.56,0,0,1,8.22-2.06C256.57,301.83,247.17,300.41,247.17,300.41Z"/><path class="cls-13" d="M293.28,398.18c1.74.93,5.8,1,5.55-.61-.16-1-3.72-1.33-6.09-2.73-1.77-1-4.92-.69-4.92-.69l-10.54-10.27L273,388.7l11.22,9.44a19.65,19.65,0,0,0,4.56,7.06c3.52,3.12,7.7,4.82,10.34,1.83S294.85,400.86,293.28,398.18Z"/><path class="cls-14" d="M264,363.84c-4.35-14-12.6-30.43-19.28-27.33-8,3.69.63,21.93,7.4,32.89,9.33,15.1,29.65,28.26,29.65,28.26l5.9-5.49S267.39,374.74,264,363.84Z"/><path class="cls-15" d="M260,348.42c-1.81-8.3-10.19-18.44-10.19-18.44s-5.23.88-11.95-4.75c-7.73,6.77-13.34,14.21-10.63,38.39,1.59,14.1,5.89,31.88,5.89,39.26h29s-.54-10.95-1.94-23C258.05,361.6,262.09,358.09,260,348.42Z"/><path class="cls-14" d="M245.16,368a106.72,106.72,0,0,0,.35-14.16.81.81,0,0,0-.31-.6.82.82,0,0,0-1.1.07.81.81,0,0,0-.23.6,104.89,104.89,0,0,1-.34,13.94c-.89,9.86,7.68,28.4,10.42,34a.82.82,0,0,1-.45,1.12l-4.64,1.74a.81.81,0,0,1-1-.31c-2.85-4.35-13.39-21.15-15.84-36a105.49,105.49,0,0,1-1.41-14.56.84.84,0,0,0-.35-.65.85.85,0,0,0-.47-.15h0a.84.84,0,0,0-.57.23.79.79,0,0,0-.25.61,105.66,105.66,0,0,0,1.43,14.79c2.89,17.49,16.69,37.54,16.83,37.74l.37.52,9-3.39-.42-.82C256.09,402.49,244.17,379,245.16,368Z"/><path class="cls-13" d="M266.41,519.53s.8,2.94.8,3,5.44-2.18,5.44-2.18l.22-3.45-6.75-.75Z"/><path class="cls-16" d="M262.09,402.88H236.78c1.74,23.36,13.88,43,22,64.5C261.49,483.2,263,500,264.33,516l10.22,1.13c1.62-19.42,2.31-41.11-.75-60.08S266.68,421.18,262.09,402.88Z"/><path class="cls-12" d="M277.74,524.81a28.44,28.44,0,0,1-5.09-4.45s-2.82,1.91-6.24-.83a11.23,11.23,0,0,0-1.74,7.87l5.7,1,.2-1.2a43.8,43.8,0,0,0,9.12,2.75c4.66.78,5.72-.38,5.32-1.2S281.48,527.26,277.74,524.81Z"/><path class="cls-17" d="M238.2,468.15c-.73,9.58,1.28,50.28,1.28,50.28h10.31s4.83-46.53,5.7-57.77,2.66-51.32,2.66-57.78h-25C228.46,422.21,236.9,444.17,238.2,468.15Z"/><path class="cls-13" d="M259.79,407.59c-1.32-1.59-4.4-2.32-4.4-2.32l-6.45-13.22-5.65,3.1,7.38,12.67a19.76,19.76,0,0,0,1.9,8.18c2.27,4.13,5.63,7.14,9.12,5.22s-1.94-7.26-2.51-10.31c1.32,1.46,5.13,2.86,5.42,1.3C264.78,411.22,261.55,409.7,259.79,407.59Z"/><path class="cls-15" d="M244.34,367.9c1.32-14.65-.1-32.93-7.46-32.6-8.77.39-7.74,20.53-5.64,33.24,2.89,17.51,16.7,37.4,16.7,37.4l7.54-2.84S243.33,379.27,244.34,367.9Z"/><polygon class="cls-13" points="241.5 522.11 245.14 526.25 247.79 521.9 247.84 518.43 241.15 518.43 241.5 522.11"/><path class="cls-12" d="M253.54,525.45a28.3,28.3,0,0,1-5.75-3.55s-2.47,2.35-6.29.21a11.21,11.21,0,0,0-.42,8h5.77v-1.22a43.43,43.43,0,0,0,9.45,1.22c4.72,0,5.58-1.32,5.05-2.06S257.63,527.26,253.54,525.45Z"/></g><g id="human2"><path class="cls-12" d="M361.19,304.06c0-5.7,7.28-8.42,13.12-6.18,11.66,4.47,4.88,28.85,9.09,31.75s4.09,12.91,0,14.76-24-1.19-24-2.24,2.64-7,3.56-13.18S361.19,304.06,361.19,304.06Z"/><path class="cls-11" d="M374.67,315.59a15.74,15.74,0,0,0,4.85,9.64s0,3.74-4.72,6-7.23-1.23-7.23-1.23L366,321.85S369.75,316,374.67,315.59Z"/><path class="cls-13" d="M371,302.93a94.08,94.08,0,0,0,.79,11.26l1.42-.57s.59-3.41.65-3.49c.61-.64,2.72-2.58,4.48-.76s.72,5.23-2.41,6.36c-5.06,8-13.34,7.46-14.5,5.46-3.05-5.21-1.27-13.39-.19-17.13C364,301.24,368.52,304.46,371,302.93Z"/><path class="cls-13" d="M324.08,398.18c-1.74.93-5.8,1-5.55-.61.16-1,3.72-1.33,6.09-2.73,1.77-1,4.92-.69,4.92-.69l10.54-10.27,4.27,4.82-11.22,9.44a19.65,19.65,0,0,1-4.56,7.06c-3.52,3.12-7.7,4.82-10.35,1.83S322.51,400.86,324.08,398.18Z"/><rect class="cls-18" x="318.52" y="393.02" width="9.88" height="16.51" transform="matrix(-0.67, 0.75, -0.75, -0.67, 838.18, 427.92)"/><path class="cls-19" d="M353.35,363.84c4.34-14,12.6-30.43,19.28-27.33,8,3.69-.63,21.93-7.4,32.89-9.33,15.1-29.65,28.26-29.65,28.26l-5.9-5.49S350,374.74,353.35,363.84Z"/><path class="cls-20" d="M353.08,348.42c1.81-8.3,14.49-18.44,14.49-18.44s5.23.88,11.95-4.75c7.73,6.77,11.08,14.35,6.59,38.27-2.25,12-8.13,28.12-1.85,39.38h-29c2.23-9.66,3.08-33.29,2-36.81C355,358.65,351.65,355,353.08,348.42Z"/><path class="cls-13" d="M343.94,521.89c1-1.6.56-4.2.56-4.2l6.66-.69,0,3.72L348,525.24l-6,2.41-3.35-1.81S342.91,523.49,343.94,521.89Z"/><path class="cls-12" d="M338.62,525.84a14.31,14.31,0,0,0,12.57-5.12,9.2,9.2,0,0,1,1.43,4.49,10.54,10.54,0,0,1-.18,3.53l-1.95.2-.26-2.53c-2.65,1-6,3.18-9.77,3.57C331.64,530.9,331.66,528,338.62,525.84Z"/><path class="cls-16" d="M355.27,402.88h25.31c-1.74,23.54-13.88,43.35-22,65-2.72,15.94-4.21,32.83-5.56,48.94l-10.22,1.14c-1.62-19.56-2.31-41.42.75-60.53S350.68,421.31,355.27,402.88Z"/><path class="cls-17" d="M379.16,468.15c.73,9.58-1.28,50.28-1.28,50.28H367.57s-4.83-46.53-5.7-57.77-2.66-51.32-2.66-57.78h25.05C396.89,424.23,380.46,444.17,379.16,468.15Z"/><path class="cls-19" d="M375.94,368.78c-1.85-8.34-2.7-16.64-2.32-22.78a.82.82,0,0,1,1.64.1c-.37,6,.46,14.13,2.28,22.33,2.07,9.36-3.6,27.9-5.77,34.45H370C372,397,378,377.88,375.94,368.78Z"/><path class="cls-19" d="M381.91,396.13a25.07,25.07,0,0,0,.66,2.72c-.63,1.52-1.23,2.88-1.75,4H379C379.82,401.14,380.84,398.83,381.91,396.13Z"/><g class="cls-21"><path class="cls-13" d="M366.51,409.94c1.1-1.74,4.06-2.86,4.06-2.86l4.71-13.93,6,2.34L375.59,409a19.8,19.8,0,0,1-.84,8.36c-1.72,4.39-4.67,7.8-8.38,6.35s1-7.45,1.18-10.55c-1.13,1.62-4.73,3.5-5.22,2C362,414.19,365,412.27,366.51,409.94Z"/></g><path class="cls-20" d="M376.74,368.6c-3.19-14.35-4.13-32.67,3.21-33.29,8.75-.74,10.32,19.37,9.86,32.24-.62,17.74-11.76,39.24-11.76,39.24l-7.85-1.85S379.2,379.74,376.74,368.6Z"/><path class="cls-13" d="M368.53,522.52c1.19-1.47,1-4.09,1-4.09h6.69l-.35,3.68-3.64,4.13L366,528l-3.15-2.13S367.35,524,368.53,522.52Z"/><path class="cls-12" d="M362.83,525.88a14.21,14.21,0,0,0,7.78-.51,14,14,0,0,0,5.25-3.26,9,9,0,0,1,1,4.58,10,10,0,0,1-.54,3.47h-1.95v-2.53c-2.74.67-6.25,2.53-10.09,2.53C355.38,530.16,355.7,527.28,362.83,525.88Z"/><path class="cls-12" d="M365.46,300.93a19.27,19.27,0,0,1,9.57,2c5,2.45,6.42,8.35,6.69,14.08s6.41,12.47,4.23,16.45c-3.41,6.7-12.76-3.89-14.26-12.45-.87-5-.82-12.8-3.37-16.09-1.82-2.36-6.38-1.07-7.13-.86A4.57,4.57,0,0,1,365.46,300.93Z"/></g><g id="human3"><path class="cls-12" d="M701.05,301.91c-3.71,1.29-14.89,15.08-6.47,23.51,7.51,7.51,20.11-9.45,20.11-9.45s3.55-.6,3.88-3.84C718.86,309.31,706.56,300,701.05,301.91Z"/><path class="cls-11" d="M696.9,322.1a15.73,15.73,0,0,1-5.56,9.25s-.29,3.72,4.25,6.32,7.3-.68,7.3-.68l2.15-8S701.78,322.92,696.9,322.1Z"/><path class="cls-13" d="M706,313.15c-3.71,5-5.41,5.7-5.41,5.7s-1.13-3.86-3.88-2.72c-2.51,1-2.75,4.51-.33,6.79,1.46,9.37,9.28,12.15,11.14,10.78C714,329,714.69,316,714.69,316Z"/><path class="cls-12" d="M705.07,328.54c-4.63-3.06.9-15.39.9-15.39l-2.26-.18-3.15,5.88s-4.55,7.68-2.63,11,6.82,5.52,8.85,6.07a2.38,2.38,0,0,0,3-1.07,41,41,0,0,0,1.88-6.53C709.49,326.83,708.56,330.84,705.07,328.54Z"/><path class="cls-11" d="M745.77,367.68c-2.07-.1-8.1,1.59-8.1,1.59l-14.56-2.13-.63,6.41,14.62,1.06a30,30,0,0,0,4.69,1.35c4.34.82,5.47-1.31,6.25-4.28C748.18,371,749.05,367.83,745.77,367.68Z"/><path class="cls-22" d="M708.32,361.62c-6.24-6-10.36-25.4-19.69-20.17-10,5.61,4.18,25.72,11.73,29.89,10.41,5.75,22.68,4.35,34.32,4.29l1.31-8.07C728.71,367,713.16,366.29,708.32,361.62Z"/><path class="cls-23" d="M711.64,356.16c-1.18-8.42-8.75-19.17-8.75-19.17s-5.28.48-11.55-5.64c-8.23,6.16-14.39,13.14-13.53,37.46.5,14.18,3.43,32.42,2.87,39.78h28.9s.3-8.93-.17-21.06C708.7,369.15,713,366,711.64,356.16Z"/><rect class="cls-19" x="746.11" y="356.85" width="1.86" height="15.35" transform="translate(206.21 -266.71) rotate(23.4)"/><path class="cls-13" d="M745.48,366c-2.07-.1-8.11,1.6-8.11,1.6l-14.55-2.14-.63,6.41,14.61,1.06a30.29,30.29,0,0,0,4.7,1.35c4.34.82,5.47-1.31,6.25-4.27C747.88,369.22,748.76,366.1,745.48,366Z"/><path class="cls-22" d="M700.47,368.89c-3.61-2-9.49-8.39-12.72-15.25a.82.82,0,1,0-1.49.69c3.06,6.51,9,13.53,13.41,16a34.55,34.55,0,0,0,10.24,3.59c.07-.57.15-1.11.23-1.63A32.61,32.61,0,0,1,700.47,368.89Z"/><path class="cls-22" d="M702.93,350.39a73.43,73.43,0,0,0-4-7,.82.82,0,1,0-1.35.92,73.92,73.92,0,0,1,4,6.89c1.95,3.71,3.8,7.21,6,9.32a12.81,12.81,0,0,0,4.26,2.51c.07-.56.12-1.13.15-1.7a10.72,10.72,0,0,1-3.27-2C706.61,357.37,704.82,354,702.93,350.39Z"/><path class="cls-23" d="M708,359.89c-6.24-6-10.36-25.39-19.7-20.17-10,5.62,4.19,25.72,11.74,29.89,10.4,5.75,22.67,4.36,34.32,4.29l1.31-8.07C728.42,365.22,712.87,364.57,708,359.89Z"/><polygon class="cls-13" points="711.77 522.11 715.41 526.25 718.06 521.9 718.12 518.43 711.42 518.43 711.77 522.11"/><path class="cls-12" d="M723.81,525.45a28.64,28.64,0,0,1-5.75-3.55s-2.47,2.35-6.29.21a11.21,11.21,0,0,0-.42,8h5.77v-1.22a43.43,43.43,0,0,0,9.45,1.22c4.73,0,5.58-1.32,5-2.06S727.91,527.26,723.81,525.45Z"/><polygon class="cls-13" points="671.26 522.11 674.9 526.25 677.55 521.9 678.43 518.43 671.74 518.43 671.26 522.11"/><path class="cls-12" d="M683.31,525.45a28.3,28.3,0,0,1-5.75-3.55s-2.47,2.35-6.3.21a11.27,11.27,0,0,0-.42,8h5.78v-1.22a43.31,43.31,0,0,0,9.45,1.22c4.72,0,5.58-1.32,5-2.06S687.4,527.26,683.31,525.45Z"/><path class="cls-24" d="M677.07,472.63c-2.41,14.95-5,30.84-7.28,45.8h10.5c4.76-17.81,10.33-32.55,15.44-50.86s8.46-39.54,10-59h-25C676.82,429.77,679.6,451.31,677.07,472.63Z"/><path class="cls-25" d="M709.55,408.59H684.43c-3,23.75,15.62,41,22.59,62.17,2.79,16.33,2.58,31.21,2.49,47.67h10.41c3-20.08,5.82-38.89,2.26-58.3S709.55,408.59,709.55,408.59Z"/></g><g id="human4"><path class="cls-12" d="M843.35,300.41c7,2.63,5,21-3.8,23.39-10.26,2.75-7.2-7.33-14.7-16.66C817.9,298.48,841.88,292.63,843.35,300.41Z"/><path class="cls-11" d="M837.7,320.66a15.78,15.78,0,0,0,4.85,9.65s0,3.73-4.72,6-7.23-1.23-7.23-1.23l-1.53-8.12S832.78,321.1,837.7,320.66Z"/><path class="cls-13" d="M834,308c1.42,6.06,2.69,7.39,2.69,7.39s2.57-3.1,4.65-1c1.88,1.95.72,5.23-2.41,6.36-5.06,8-13.34,7.46-14.5,5.47-4-6.94.44-19.13.44-19.13S828,308.88,834,308Z"/><polygon class="cls-13" points="791.4 518.43 790.16 522.12 785.62 525.43 784.12 520.27 784.91 516.69 791.4 518.43"/><path class="cls-12" d="M777.67,522.42a27.38,27.38,0,0,0,6.45-2.15s1.81,3.05,6,1.85a12.54,12.54,0,0,1-1.57,8.39L783,529l.3-1.25a41.13,41.13,0,0,1-9.46-1.21c-4.58-1.23-5.09-2.8-4.39-3.43S773.26,523.21,777.67,522.42Z"/><path class="cls-16" d="M818.31,408h25.83c-2.2,26.33-22.23,41.14-34.87,62-7.12,16-11.65,32-15.91,49.07-3.34-.94-6.74-1.66-10-2.74,1.8-20.49,4.56-39.07,12.53-57.39S818.31,408,818.31,408Z"/><path class="cls-14" d="M815,360.73c5.24-7.17,11.34-24.51,20.36-19.49,10.75,6-2.72,21.27-9.37,26.62-9.15,7.37-21.72,11-33.15,14.09a37.2,37.2,0,0,1-3.58-7.37C796.82,372.54,810.92,366.29,815,360.73Z"/><path class="cls-15" d="M820.41,353.5c1.82-8.31,10.19-18.45,10.19-18.45s5.23.88,11.95-4.74c7.73,6.76,13.34,14.2,10.63,38.39-1.58,14.09-5.89,31.88-5.89,39.26h-29s.54-11,1.93-23C822.35,366.67,818.31,363.16,820.41,353.5Z"/><path class="cls-14" d="M825.54,360.68a51,51,0,0,0,3.88-7.55,67.37,67.37,0,0,1,4.06-8,.82.82,0,1,1,1.38.87,66.33,66.33,0,0,0-3.94,7.82,53.13,53.13,0,0,1-4,7.81,22.36,22.36,0,0,1-6.45,5.49c-.06-.63-.13-1.24-.19-1.82A19.52,19.52,0,0,0,825.54,360.68Z"/><path class="cls-14" d="M844.82,355.51a.82.82,0,1,1,1.5.66A37.23,37.23,0,0,1,838.19,368a54.56,54.56,0,0,1-17.39,9.92c0-.61,0-1.21.05-1.78a52.1,52.1,0,0,0,16.25-9.36A35.5,35.5,0,0,0,844.82,355.51Z"/><path class="cls-15" d="M826.22,361.15C831.17,354,834.45,337,844,340.89c8.84,3.63.11,20.76-6.33,26.51-8.89,7.93-21.36,11.64-33,14.33-1.25-2.5-2.62-4.86-3.66-7.48C808.45,372.7,822.37,366.7,826.22,361.15Z"/><path class="cls-25" d="M794.63,390.16l15-.9a.32.32,0,0,0,.26-.46l-13.19-25.91a.34.34,0,0,0-.12-.12.29.29,0,0,0-.18,0l-15,.9a.33.33,0,0,0-.25.15.34.34,0,0,0,0,.31L794.33,390a.34.34,0,0,0,.12.12A.29.29,0,0,0,794.63,390.16Z"/><path class="cls-13" d="M793.17,378.12a5.33,5.33,0,0,1-3.5,5.19c-1.6.39-4.47-6-2.67-7S792.91,375.66,793.17,378.12Z"/><polygon class="cls-13" points="885.23 513.68 884.51 519.14 879.89 517.01 877.91 514.17 883.46 510.44 885.23 513.68"/><path class="cls-12" d="M879.89,517s3.35.57,5.34-3.34a11.19,11.19,0,0,1,4.83,6.44l-4.79,3.22-.68-1a43.66,43.66,0,0,1-7.16,6.28c-3.92,2.63-5.37,2-5.34,1.1s2.61-2.77,5-6.55A29,29,0,0,0,879.89,517Z"/><path class="cls-17" d="M859,467.23c8.94,13.9,17.66,27.91,25.77,42.32-2.85,2-5.73,3.76-8.55,5.87-12-16.26-25.79-29.68-36-47.52S826.56,428,822,408h25.29C854.67,427.09,851,448.23,859,467.23Z"/></g><g id="human5"><path class="cls-12" d="M584.8,98.26c-3.59,1.58-13.69,16.18-4.65,23.94,8.06,6.92,19.33-11,19.33-11s3.49-.88,3.58-4.13C603.13,104.29,590.15,95.92,584.8,98.26Z"/><path class="cls-11" d="M582.21,118.72a15.76,15.76,0,0,1-4.84,9.64s0,3.74,4.72,6,7.22-1.23,7.22-1.23l1.54-8.13S587.13,119.16,582.21,118.72Z"/><path class="cls-11" d="M636.71,170.42c-2.06-.1-8.1,1.6-8.1,1.6l-14.55-2.14-.64,6.41L628,177.36a31,31,0,0,0,4.69,1.34c4.34.83,5.48-1.31,6.26-4.27C639.12,173.7,640,170.58,636.71,170.42Z"/><path class="cls-18" d="M599.27,164.36c-6.24-6-10.36-25.39-19.7-20.16-10,5.61,4.19,25.71,11.74,29.88,10.4,5.75,22.67,4.36,34.32,4.29l1.31-8.07C619.65,169.69,604.11,169,599.27,164.36Z"/><path class="cls-26" d="M603.81,151.55c-1.81-8.3-14.5-18.44-14.5-18.44s-5.22.88-11.94-4.75c-7.73,6.77-11.08,14.35-6.6,38.27,2.25,12,8.13,28.12,1.85,39.38h29c0-1-3.08-33.29-2-36.81C601.91,161.78,605.24,158.11,603.81,151.55Z"/><rect class="cls-19" x="637.05" y="159.59" width="1.86" height="15.35" transform="translate(118.93 -239.65) rotate(23.4)"/><path class="cls-13" d="M636.42,168.69c-2.07-.09-8.1,1.6-8.1,1.6l-14.56-2.14-.63,6.41,14.62,1.07a30,30,0,0,0,4.69,1.35c4.34.82,5.47-1.32,6.25-4.28C638.83,172,639.7,168.85,636.42,168.69Z"/><path class="cls-18" d="M593.87,153.14a73.58,73.58,0,0,0-4-7,.82.82,0,0,0-1.36.93,71.54,71.54,0,0,1,3.95,6.88c2,3.71,3.8,7.21,6,9.32a10.64,10.64,0,0,0,2.7,1.83c.21-.52.41-1,.62-1.52a8.94,8.94,0,0,1-2.19-1.49C597.55,160.12,595.76,156.73,593.87,153.14Z"/><path class="cls-18" d="M591.41,171.64c-3.6-2-9.49-8.39-12.72-15.26a.81.81,0,0,0-1.09-.39.82.82,0,0,0-.39,1.09c3.06,6.5,8.95,13.53,13.41,16a33.16,33.16,0,0,0,8.85,3.3c0-.59,0-1.15-.05-1.7A31.51,31.51,0,0,1,591.41,171.64Z"/><path class="cls-26" d="M599,162.63c-6.24-6-10.37-25.39-19.7-20.16-10,5.61,4.19,25.71,11.74,29.89,10.4,5.74,22.67,4.35,34.31,4.29l1.31-8.08C619.36,168,603.82,167.31,599,162.63Z"/><path class="cls-13" d="M590.57,109.1c-3.32,5.26-5,6.1-5,6.1s-1.42-3.77-4.08-2.42c-2.42,1.22-2.39,4.71.2,6.79,2.16,9.23,10.17,11.41,11.92,9.91,6.1-5.24,5.83-18.23,5.83-18.23Z"/><path class="cls-12" d="M574.25,122.43c-5.49,9.09-3.92,12.43-5.06,18.22-1.1,5.57-2.12,11.07-.43,11.07,1.13,0,11.58-12.65,12.81-22.66.6-4.85,5.2-4.13,4.22-11.42-.88-6.51,13.69-6.39,13.69-6.39l-13-13.37C572.89,98.93,578.64,115.17,574.25,122.43Z"/><path class="cls-13" d="M638.67,285.79a13.88,13.88,0,0,1-1.93-4.09h-6.69l1.29,3.68,3.64,4.13,6.24,1.77,3.15-2.13S639.86,287.26,638.67,285.79Z"/><path class="cls-12" d="M644.37,289.15a14.3,14.3,0,0,1-7.78-.51,14,14,0,0,1-5.25-3.26,9,9,0,0,0-1,4.57,10.22,10.22,0,0,0,.54,3.47h2v-2.53c2.74.68,6.25,2.53,10.09,2.53C651.82,293.42,651.51,290.55,644.37,289.15Z"/><path class="cls-27" d="M601.61,206h-29c0,15.87,12.31,22.33,26.81,22.33,5.47,0,14.15.71,14.15.71l15,52.65H638c0-19.57-6.72-55.27-10.67-60.15C621.14,213.88,601.61,206,601.61,206Z"/><path class="cls-13" d="M608.38,288.83c-1.19-1.47.3-4.09.3-4.09H602l-.93,3.68,3.64,4.13,6.23,1.77,3.16-2.13S609.56,290.3,608.38,288.83Z"/><path class="cls-12" d="M614.08,292.19a14.35,14.35,0,0,1-7.79-.51,14.2,14.2,0,0,1-5.24-3.26,9,9,0,0,0-1,4.57,10,10,0,0,0,.54,3.47h2v-2.53c2.74.68,6.25,2.53,10.09,2.53C621.53,296.46,621.21,293.59,614.08,292.19Z"/><path class="cls-28" d="M635.62,211.36c-6.4-2.76-34-5.35-34-5.35h-29c-3.61,5.13-5.85,14.24-3.86,19.58,2.78,7.47,11.47,8.9,20,8.35,4.32-.28,33-4.89,33-4.89s-19.17,37.47-21.25,55.69h9.62C613.68,274.08,651.29,218.12,635.62,211.36Z"/></g></svg>